<svg width="947" height="1250" fill="none" xmlns="http://www.w3.org/2000/svg"><g opacity=".3" filter="url(#filter0_f)" fill-rule="evenodd" clip-rule="evenodd"><path opacity=".3" d="M544.857 260.833l-112.696.057c-23.259.012-43.389 16.176-48.423 38.883L260.745 854.558c-6.871 30.994 16.726 60.38 48.473 60.364l355.841-.179c23.259-.011 43.389-16.176 48.423-38.883l35.201-158.781-243.145.122c-31.747.016-55.344-29.37-48.472-60.364l87.791-396.004z" fill="url(#paint0_linear)"/><path opacity=".3" d="M738.111 764.767l10.572-47.688-243.144.122c-31.747.016-55.344-29.37-48.473-60.364l87.792-396.004-43.572.022-98.364 443.691c-6.872 30.995 16.726 60.381 48.472 60.365l286.717-.144z" fill="#000" fill-opacity=".06"/><path d="M628.481 63.169c-23.259.012-43.389 16.176-48.423 38.883l-35.201 158.781 243.145-.122c31.747-.016 55.344 29.37 48.472 60.365l-87.791 396.003 112.696-.057c23.259-.012 43.389-16.176 48.423-38.883l122.988-554.785c6.88-30.994-16.72-60.38-48.468-60.364l-355.841.179z" fill="url(#paint1_linear)"/><path d="M792.256 717.057l98.364-443.691c6.871-30.994-16.726-60.38-48.473-60.364l-286.718.144-10.572 47.687 243.145-.122c31.747-.016 55.344 29.37 48.472 60.365l-87.791 396.003 43.573-.022z" fill="#000" fill-opacity=".03"/></g><defs><linearGradient id="paint0_linear" x1="383.849" y1="168.259" x2="695.66" y2="956.249" gradientUnits="userSpaceOnUse"><stop stop-color="#812CFC"/><stop offset="1" stop-color="#CF44FF"/></linearGradient><linearGradient id="paint1_linear" x1="1049.68" y1="47.203" x2="560.893" y2="548.787" gradientUnits="userSpaceOnUse"><stop stop-color="#38D4FF"/><stop offset="1" stop-color="#2D9EFF"/></linearGradient><filter id="filter0_f" x="0" y="-271.778" width="1293.54" height="1521.47" filterUnits="userSpaceOnUse" color-interpolation-filters="sRGB"><feFlood flood-opacity="0" result="BackgroundImageFix"/><feBlend in="SourceGraphic" in2="BackgroundImageFix" result="shape"/><feGaussianBlur stdDeviation="125" result="effect1_foregroundBlur"/></filter></defs></svg>