<svg width="132" height="43" fill="none" xmlns="http://www.w3.org/2000/svg"><path fill-rule="evenodd" clip-rule="evenodd" d="M12.38 12.2l-4.354.006a1.922 1.922 0 00-1.871 1.508L1.387 35.22a1.918 1.918 0 001.87 2.339l13.747-.018a1.922 1.922 0 001.871-1.508l1.365-6.156-9.393.012a1.919 1.919 0 01-1.87-2.338L12.38 12.2z" fill="url(#paint0_linear)"/><path fill-rule="evenodd" clip-rule="evenodd" d="M19.83 31.726l.41-1.849-9.393.012a1.918 1.918 0 01-1.87-2.338L12.38 12.2l-1.683.002-3.814 17.2a1.918 1.918 0 001.871 2.338l11.076-.014z" fill="#000" fill-opacity=".06"/><path fill-rule="evenodd" clip-rule="evenodd" d="M15.616 4.536a1.922 1.922 0 00-1.872 1.509L12.38 12.2l9.393-.012a1.918 1.918 0 011.87 2.338L20.24 29.877l4.354-.005a1.922 1.922 0 001.871-1.509l4.768-21.506a1.919 1.919 0 00-1.87-2.338l-13.747.017z" fill="url(#paint1_linear)"/><path fill-rule="evenodd" clip-rule="evenodd" d="M21.923 29.875l3.813-17.2a1.918 1.918 0 00-1.87-2.338l-11.076.014-.41 1.849 9.393-.012a1.919 1.919 0 011.87 2.338L20.24 29.877l1.683-.002z" fill="#000" fill-opacity=".03"/><path d="M44.406 15.812c.289 0 .524.086.706.257a.882.882 0 01.273.674c0 .278-.091.502-.273.673-.182.16-.417.24-.706.24h-2.518v8.406a.935.935 0 01-.305.706 1.09 1.09 0 01-.754.272c-.3 0-.545-.09-.738-.272a.96.96 0 01-.288-.706v-8.405h-2.519c-.288 0-.524-.086-.705-.257a.882.882 0 01-.273-.673c0-.268.09-.487.273-.658.192-.171.427-.257.705-.257h7.122zm10.37.546a.859.859 0 01.496.818c0 .224-.08.444-.24.657a.792.792 0 01-.658.337c-.182 0-.364-.048-.545-.144a3.951 3.951 0 00-1.7-.37c-.749 0-1.401.161-1.957.482-.556.31-.984.754-1.284 1.331-.299.567-.449 1.22-.449 1.957 0 1.262.337 2.22 1.01 2.871.685.653 1.578.979 2.68.979.652 0 1.218-.123 1.7-.369.192-.086.363-.128.513-.128.278 0 .513.117.706.352.16.204.24.423.24.658a.835.835 0 01-.497.786 5.873 5.873 0 01-2.662.626c-1.048 0-2.01-.22-2.888-.658a5.177 5.177 0 01-2.1-1.973c-.525-.866-.787-1.914-.787-3.144 0-1.09.246-2.069.738-2.935a5.294 5.294 0 012.07-2.021c.876-.492 1.865-.738 2.967-.738.951 0 1.833.209 2.646.626zm10.633 4.62c.278 0 .508.095.69.288a.935.935 0 01.272.69v3.4c0 .374-.165.663-.497.866a6.4 6.4 0 01-3.449.979 5.816 5.816 0 01-2.935-.77 5.911 5.911 0 01-2.133-2.102 5.608 5.608 0 01-.786-2.903c0-1.048.262-2.01.786-2.887a5.746 5.746 0 012.133-2.101 5.724 5.724 0 012.935-.786c1.06 0 1.979.214 2.76.642.16.085.277.197.352.336a.842.842 0 01.128.45c0 .267-.09.502-.272.705a.823.823 0 01-.642.289c-.16 0-.337-.043-.53-.128a4.54 4.54 0 00-1.796-.37c-.684 0-1.315.177-1.892.53a3.835 3.835 0 00-1.38 1.395 3.854 3.854 0 00-.497 1.925c0 .695.166 1.337.497 1.925a3.965 3.965 0 001.38 1.412 3.645 3.645 0 001.892.513c.3 0 .62-.027.963-.08.342-.054.641-.123.898-.209v-2.085h-1.508a.99.99 0 01-.706-.273.935.935 0 01-.272-.69c0-.277.09-.507.273-.69a.99.99 0 01.705-.272h2.63z" fill="#8D30FD"/><path d="M75.84 15.812c.288 0 .523.086.705.257a.883.883 0 01.273.674c0 .278-.091.502-.273.673-.181.16-.417.24-.706.24h-2.518v8.406a.935.935 0 01-.305.706 1.09 1.09 0 01-.753.272c-.3 0-.546-.09-.738-.272a.96.96 0 01-.289-.706v-8.405h-2.518c-.289 0-.524-.086-.706-.257a.882.882 0 01-.273-.673c0-.268.091-.487.273-.658.192-.171.428-.257.706-.257h7.121zm11.628 9.656a.88.88 0 01.32.337.815.815 0 01.13.433.828.828 0 01-.193.53c-.16.192-.407.288-.738.288a1.44 1.44 0 01-.706-.176c-.77-.438-1.155-1.331-1.155-2.679 0-.385-.128-.69-.385-.914-.246-.225-.604-.337-1.074-.337h-3v3.112c0 .289-.08.524-.24.706a.748.748 0 01-.61.272 1.3 1.3 0 01-.818-.272.896.896 0 01-.337-.706V16.79a.96.96 0 01.978-.978h4.62c.556 0 1.08.149 1.572.448.492.3.882.712 1.171 1.236.3.523.45 1.112.45 1.764 0 .535-.145 1.059-.434 1.572a3.471 3.471 0 01-1.123 1.203c.674.47 1.043 1.101 1.107 1.892.032.172.048.337.048.498.043.331.086.572.128.722a.53.53 0 00.29.32zm-3.288-4.17c.192 0 .38-.09.561-.273a2.08 2.08 0 00.45-.721c.117-.31.176-.642.176-.995 0-.3-.059-.572-.177-.818a1.677 1.677 0 00-.449-.61c-.181-.15-.369-.224-.561-.224h-3.513v3.641h3.513zm12.006 3.898c.278 0 .508.096.69.288a.855.855 0 01.289.642.84.84 0 01-.289.658.967.967 0 01-.69.256h-5.373a.99.99 0 01-.706-.272.99.99 0 01-.273-.706V16.79a.96.96 0 01.978-.978h5.374c.278 0 .508.09.69.272a.858.858 0 01.289.674c0 .267-.091.486-.273.657-.182.16-.417.24-.706.24H91.84v2.728h3.625c.279 0 .508.09.69.272a.858.858 0 01.289.674c0 .267-.091.487-.273.658-.182.16-.417.24-.706.24H91.84v2.968h4.347zm11.505-9.384a.82.82 0 01.626.257c.16.171.24.385.24.642v9.35a.961.961 0 01-.978.98c-.15 0-.3-.022-.449-.065a.669.669 0 01-.305-.208l-5.887-7.475v6.849a.87.87 0 01-.256.642c-.161.17-.375.256-.642.256a.818.818 0 01-.626-.256.902.902 0 01-.24-.642v-9.351c0-.278.09-.508.273-.69a.96.96 0 01.705-.289c.161 0 .316.032.466.097.16.064.278.15.352.256l5.839 7.443V16.71a.9.9 0 01.241-.641.87.87 0 01.641-.257zm8.25 0c1.006 0 1.866.252 2.583.754.727.492 1.278 1.166 1.652 2.021.385.845.577 1.791.577 2.84 0 1.047-.192 1.999-.577 2.854a4.727 4.727 0 01-1.652 2.021c-.717.492-1.577.738-2.583.738h-3.833a.991.991 0 01-.706-.272.989.989 0 01-.273-.706V16.79a.961.961 0 01.979-.978h3.833zm-.16 9.384c.962 0 1.684-.353 2.165-1.059.482-.716.722-1.62.722-2.71 0-1.091-.246-1.99-.738-2.695-.481-.717-1.197-1.075-2.149-1.075h-2.647v7.539h2.647zm10.584 2.005c-.77 0-1.454-.097-2.053-.289a4.751 4.751 0 01-1.684-.979c-.289-.256-.434-.54-.434-.85 0-.245.091-.46.273-.641a.872.872 0 01.658-.289c.203 0 .385.064.545.193.428.352.845.61 1.251.77.407.16.888.24 1.444.24.599 0 1.112-.134 1.54-.4.438-.268.657-.6.657-.995 0-.482-.214-.856-.641-1.123-.428-.278-1.107-.487-2.037-.626-2.342-.342-3.513-1.433-3.513-3.272 0-.674.176-1.256.529-1.748a3.265 3.265 0 011.444-1.14c.609-.266 1.288-.4 2.037-.4.674 0 1.304.102 1.893.305.598.203 1.096.47 1.491.802.31.246.466.529.466.85a.931.931 0 01-.273.657.88.88 0 01-.642.273.703.703 0 01-.433-.144c-.278-.225-.668-.428-1.171-.61-.492-.192-.935-.288-1.331-.288-.674 0-1.198.128-1.572.384-.364.246-.545.572-.545.979 0 .46.187.807.561 1.043.385.235.984.427 1.797.577.919.16 1.652.369 2.197.625.556.246.973.589 1.251 1.027.278.428.417 1 .417 1.716 0 .674-.192 1.268-.577 1.78-.375.503-.877.894-1.508 1.172a5.168 5.168 0 01-2.037.4z" fill="#34C1FF"/><defs><linearGradient id="paint0_linear" x1="6.163" y1="8.617" x2="18.288" y2="39.108" gradientUnits="userSpaceOnUse"><stop stop-color="#812CFC"/><stop offset="1" stop-color="#CF44FF"/></linearGradient><linearGradient id="paint1_linear" x1="31.888" y1="3.905" x2="12.927" y2="23.298" gradientUnits="userSpaceOnUse"><stop stop-color="#38D4FF"/><stop offset="1" stop-color="#2D9EFF"/></linearGradient></defs></svg>
