<svg width="605" height="234" viewBox="0 0 605 234" fill="none" xmlns="http://www.w3.org/2000/svg">
<path d="M582.066 12V11.252H583.672V6.082H582.396V5.499C582.719 5.44033 582.998 5.37067 583.232 5.29C583.474 5.202 583.691 5.09933 583.881 4.982H584.574V11.252H586.026V12H582.066ZM589.239 12.132C588.96 12.132 588.704 12.1027 588.469 12.044C588.242 11.9927 588.033 11.923 587.842 11.835C587.659 11.747 587.49 11.648 587.336 11.538C587.189 11.4207 587.057 11.2997 586.94 11.175L587.38 10.581C587.585 10.7937 587.827 10.9807 588.106 11.142C588.392 11.3033 588.74 11.384 589.151 11.384C589.364 11.384 589.562 11.3473 589.745 11.274C589.936 11.1933 590.101 11.0833 590.24 10.944C590.379 10.8047 590.489 10.636 590.57 10.438C590.651 10.24 590.691 10.02 590.691 9.778C590.691 9.294 590.555 8.91633 590.284 8.645C590.013 8.37367 589.65 8.238 589.195 8.238C588.953 8.238 588.744 8.27467 588.568 8.348C588.399 8.42133 588.209 8.52767 587.996 8.667L587.512 8.359L587.743 4.982H591.252V5.763H588.535L588.348 7.842C588.517 7.754 588.685 7.68433 588.854 7.633C589.023 7.58167 589.213 7.556 589.426 7.556C589.727 7.556 590.009 7.6 590.273 7.688C590.537 7.776 590.768 7.91167 590.966 8.095C591.164 8.271 591.318 8.49833 591.428 8.777C591.545 9.04833 591.604 9.37467 591.604 9.756C591.604 10.1373 591.538 10.4747 591.406 10.768C591.274 11.0613 591.098 11.3107 590.878 11.516C590.658 11.714 590.405 11.868 590.119 11.978C589.84 12.0807 589.547 12.132 589.239 12.132ZM594.872 12.132C594.16 12.132 593.607 11.8167 593.211 11.186C592.815 10.5553 592.617 9.64967 592.617 8.469C592.617 7.28833 592.815 6.39 593.211 5.774C593.607 5.158 594.16 4.85 594.872 4.85C595.576 4.85 596.126 5.158 596.522 5.774C596.918 6.39 597.116 7.28833 597.116 8.469C597.116 9.64967 596.918 10.5553 596.522 11.186C596.126 11.8167 595.576 12.132 594.872 12.132ZM594.872 11.406C595.077 11.406 595.26 11.351 595.422 11.241C595.59 11.1237 595.733 10.9477 595.851 10.713C595.975 10.471 596.071 10.1667 596.137 9.8C596.203 9.426 596.236 8.98233 596.236 8.469C596.236 7.95567 596.203 7.51567 596.137 7.149C596.071 6.78233 595.975 6.48533 595.851 6.258C595.733 6.02333 595.59 5.851 595.422 5.741C595.26 5.631 595.077 5.576 594.872 5.576C594.666 5.576 594.479 5.631 594.311 5.741C594.142 5.851 593.995 6.02333 593.871 6.258C593.753 6.48533 593.662 6.78233 593.596 7.149C593.53 7.51567 593.497 7.95567 593.497 8.469C593.497 9.49567 593.621 10.2437 593.871 10.713C594.127 11.175 594.461 11.406 594.872 11.406ZM600.34 12.132C599.628 12.132 599.075 11.8167 598.679 11.186C598.283 10.5553 598.085 9.64967 598.085 8.469C598.085 7.28833 598.283 6.39 598.679 5.774C599.075 5.158 599.628 4.85 600.34 4.85C601.044 4.85 601.594 5.158 601.99 5.774C602.386 6.39 602.584 7.28833 602.584 8.469C602.584 9.64967 602.386 10.5553 601.99 11.186C601.594 11.8167 601.044 12.132 600.34 12.132ZM600.34 11.406C600.545 11.406 600.728 11.351 600.89 11.241C601.058 11.1237 601.201 10.9477 601.319 10.713C601.443 10.471 601.539 10.1667 601.605 9.8C601.671 9.426 601.704 8.98233 601.704 8.469C601.704 7.95567 601.671 7.51567 601.605 7.149C601.539 6.78233 601.443 6.48533 601.319 6.258C601.201 6.02333 601.058 5.851 600.89 5.741C600.728 5.631 600.545 5.576 600.34 5.576C600.134 5.576 599.947 5.631 599.779 5.741C599.61 5.851 599.463 6.02333 599.339 6.258C599.221 6.48533 599.13 6.78233 599.064 7.149C598.998 7.51567 598.965 7.95567 598.965 8.469C598.965 9.49567 599.089 10.2437 599.339 10.713C599.595 11.175 599.929 11.406 600.34 11.406Z" fill="#A2A3A5"/>
<path d="M582.066 77.5579V76.8099H583.672V71.6399H582.396V71.0569C582.719 70.9982 582.998 70.9285 583.232 70.8479C583.474 70.7599 583.691 70.6572 583.881 70.5399H584.574V76.8099H586.026V77.5579H582.066ZM589.404 77.6899C588.693 77.6899 588.139 77.3745 587.743 76.7439C587.347 76.1132 587.149 75.2075 587.149 74.0269C587.149 72.8462 587.347 71.9479 587.743 71.3319C588.139 70.7159 588.693 70.4079 589.404 70.4079C590.108 70.4079 590.658 70.7159 591.054 71.3319C591.45 71.9479 591.648 72.8462 591.648 74.0269C591.648 75.2075 591.45 76.1132 591.054 76.7439C590.658 77.3745 590.108 77.6899 589.404 77.6899ZM589.404 76.9639C589.609 76.9639 589.793 76.9089 589.954 76.7989C590.123 76.6815 590.266 76.5055 590.383 76.2709C590.508 76.0289 590.603 75.7245 590.669 75.3579C590.735 74.9839 590.768 74.5402 590.768 74.0269C590.768 73.5135 590.735 73.0735 590.669 72.7069C590.603 72.3402 590.508 72.0432 590.383 71.8159C590.266 71.5812 590.123 71.4089 589.954 71.2989C589.793 71.1889 589.609 71.1339 589.404 71.1339C589.199 71.1339 589.012 71.1889 588.843 71.2989C588.674 71.4089 588.528 71.5812 588.403 71.8159C588.286 72.0432 588.194 72.3402 588.128 72.7069C588.062 73.0735 588.029 73.5135 588.029 74.0269C588.029 75.0535 588.154 75.8015 588.403 76.2709C588.66 76.7329 588.993 76.9639 589.404 76.9639ZM594.872 77.6899C594.16 77.6899 593.607 77.3745 593.211 76.7439C592.815 76.1132 592.617 75.2075 592.617 74.0269C592.617 72.8462 592.815 71.9479 593.211 71.3319C593.607 70.7159 594.16 70.4079 594.872 70.4079C595.576 70.4079 596.126 70.7159 596.522 71.3319C596.918 71.9479 597.116 72.8462 597.116 74.0269C597.116 75.2075 596.918 76.1132 596.522 76.7439C596.126 77.3745 595.576 77.6899 594.872 77.6899ZM594.872 76.9639C595.077 76.9639 595.26 76.9089 595.422 76.7989C595.59 76.6815 595.733 76.5055 595.851 76.2709C595.975 76.0289 596.071 75.7245 596.137 75.3579C596.203 74.9839 596.236 74.5402 596.236 74.0269C596.236 73.5135 596.203 73.0735 596.137 72.7069C596.071 72.3402 595.975 72.0432 595.851 71.8159C595.733 71.5812 595.59 71.4089 595.422 71.2989C595.26 71.1889 595.077 71.1339 594.872 71.1339C594.666 71.1339 594.479 71.1889 594.311 71.2989C594.142 71.4089 593.995 71.5812 593.871 71.8159C593.753 72.0432 593.662 72.3402 593.596 72.7069C593.53 73.0735 593.497 73.5135 593.497 74.0269C593.497 75.0535 593.621 75.8015 593.871 76.2709C594.127 76.7329 594.461 76.9639 594.872 76.9639ZM600.34 77.6899C599.628 77.6899 599.075 77.3745 598.679 76.7439C598.283 76.1132 598.085 75.2075 598.085 74.0269C598.085 72.8462 598.283 71.9479 598.679 71.3319C599.075 70.7159 599.628 70.4079 600.34 70.4079C601.044 70.4079 601.594 70.7159 601.99 71.3319C602.386 71.9479 602.584 72.8462 602.584 74.0269C602.584 75.2075 602.386 76.1132 601.99 76.7439C601.594 77.3745 601.044 77.6899 600.34 77.6899ZM600.34 76.9639C600.545 76.9639 600.728 76.9089 600.89 76.7989C601.058 76.6815 601.201 76.5055 601.319 76.2709C601.443 76.0289 601.539 75.7245 601.605 75.3579C601.671 74.9839 601.704 74.5402 601.704 74.0269C601.704 73.5135 601.671 73.0735 601.605 72.7069C601.539 72.3402 601.443 72.0432 601.319 71.8159C601.201 71.5812 601.058 71.4089 600.89 71.2989C600.728 71.1889 600.545 71.1339 600.34 71.1339C600.134 71.1339 599.947 71.1889 599.779 71.2989C599.61 71.4089 599.463 71.5812 599.339 71.8159C599.221 72.0432 599.13 72.3402 599.064 72.7069C598.998 73.0735 598.965 73.5135 598.965 74.0269C598.965 75.0535 599.089 75.8015 599.339 76.2709C599.595 76.7329 599.929 76.9639 600.34 76.9639Z" fill="#A2A3A5"/>
<path d="M583.771 143.248C583.493 143.248 583.236 143.218 583.001 143.16C582.774 143.108 582.565 143.039 582.374 142.951C582.191 142.863 582.022 142.764 581.868 142.654C581.722 142.536 581.59 142.415 581.472 142.291L581.912 141.697C582.118 141.909 582.36 142.096 582.638 142.258C582.924 142.419 583.273 142.5 583.683 142.5C583.896 142.5 584.094 142.463 584.277 142.39C584.468 142.309 584.633 142.199 584.772 142.06C584.912 141.92 585.022 141.752 585.102 141.554C585.183 141.356 585.223 141.136 585.223 140.894C585.223 140.41 585.088 140.032 584.816 139.761C584.545 139.489 584.182 139.354 583.727 139.354C583.485 139.354 583.276 139.39 583.1 139.464C582.932 139.537 582.741 139.643 582.528 139.783L582.044 139.475L582.275 136.098H585.784V136.879H583.067L582.88 138.958C583.049 138.87 583.218 138.8 583.386 138.749C583.555 138.697 583.746 138.672 583.958 138.672C584.259 138.672 584.541 138.716 584.805 138.804C585.069 138.892 585.3 139.027 585.498 139.211C585.696 139.387 585.85 139.614 585.96 139.893C586.078 140.164 586.136 140.49 586.136 140.872C586.136 141.253 586.07 141.59 585.938 141.884C585.806 142.177 585.63 142.426 585.41 142.632C585.19 142.83 584.937 142.984 584.651 143.094C584.373 143.196 584.079 143.248 583.771 143.248ZM589.404 143.248C588.693 143.248 588.139 142.932 587.743 142.302C587.347 141.671 587.149 140.765 587.149 139.585C587.149 138.404 587.347 137.506 587.743 136.89C588.139 136.274 588.693 135.966 589.404 135.966C590.108 135.966 590.658 136.274 591.054 136.89C591.45 137.506 591.648 138.404 591.648 139.585C591.648 140.765 591.45 141.671 591.054 142.302C590.658 142.932 590.108 143.248 589.404 143.248ZM589.404 142.522C589.609 142.522 589.793 142.467 589.954 142.357C590.123 142.239 590.266 142.063 590.383 141.829C590.508 141.587 590.603 141.282 590.669 140.916C590.735 140.542 590.768 140.098 590.768 139.585C590.768 139.071 590.735 138.631 590.669 138.265C590.603 137.898 590.508 137.601 590.383 137.374C590.266 137.139 590.123 136.967 589.954 136.857C589.793 136.747 589.609 136.692 589.404 136.692C589.199 136.692 589.012 136.747 588.843 136.857C588.674 136.967 588.528 137.139 588.403 137.374C588.286 137.601 588.194 137.898 588.128 138.265C588.062 138.631 588.029 139.071 588.029 139.585C588.029 140.611 588.154 141.359 588.403 141.829C588.66 142.291 588.993 142.522 589.404 142.522ZM594.872 143.248C594.16 143.248 593.607 142.932 593.211 142.302C592.815 141.671 592.617 140.765 592.617 139.585C592.617 138.404 592.815 137.506 593.211 136.89C593.607 136.274 594.16 135.966 594.872 135.966C595.576 135.966 596.126 136.274 596.522 136.89C596.918 137.506 597.116 138.404 597.116 139.585C597.116 140.765 596.918 141.671 596.522 142.302C596.126 142.932 595.576 143.248 594.872 143.248ZM594.872 142.522C595.077 142.522 595.26 142.467 595.422 142.357C595.59 142.239 595.733 142.063 595.851 141.829C595.975 141.587 596.071 141.282 596.137 140.916C596.203 140.542 596.236 140.098 596.236 139.585C596.236 139.071 596.203 138.631 596.137 138.265C596.071 137.898 595.975 137.601 595.851 137.374C595.733 137.139 595.59 136.967 595.422 136.857C595.26 136.747 595.077 136.692 594.872 136.692C594.666 136.692 594.479 136.747 594.311 136.857C594.142 136.967 593.995 137.139 593.871 137.374C593.753 137.601 593.662 137.898 593.596 138.265C593.53 138.631 593.497 139.071 593.497 139.585C593.497 140.611 593.621 141.359 593.871 141.829C594.127 142.291 594.461 142.522 594.872 142.522Z" fill="#A2A3A5"/>
<path d="M583.936 208.806C583.225 208.806 582.671 208.49 582.275 207.86C581.879 207.229 581.681 206.323 581.681 205.143C581.681 203.962 581.879 203.064 582.275 202.448C582.671 201.832 583.225 201.524 583.936 201.524C584.64 201.524 585.19 201.832 585.586 202.448C585.982 203.064 586.18 203.962 586.18 205.143C586.18 206.323 585.982 207.229 585.586 207.86C585.19 208.49 584.64 208.806 583.936 208.806ZM583.936 208.08C584.142 208.08 584.325 208.025 584.486 207.915C584.655 207.797 584.798 207.621 584.915 207.387C585.04 207.145 585.135 206.84 585.201 206.474C585.267 206.1 585.3 205.656 585.3 205.143C585.3 204.629 585.267 204.189 585.201 203.823C585.135 203.456 585.04 203.159 584.915 202.932C584.798 202.697 584.655 202.525 584.486 202.415C584.325 202.305 584.142 202.25 583.936 202.25C583.731 202.25 583.544 202.305 583.375 202.415C583.207 202.525 583.06 202.697 582.935 202.932C582.818 203.159 582.726 203.456 582.66 203.823C582.594 204.189 582.561 204.629 582.561 205.143C582.561 206.169 582.686 206.917 582.935 207.387C583.192 207.849 583.526 208.08 583.936 208.08Z" fill="#A2A3A5"/>
<line x1="2" y1="10.7737" x2="575.247" y2="10.7737" stroke="#ECE9F1"/>
<line x1="2" y1="76.3281" x2="575.247" y2="76.3281" stroke="#ECE9F1"/>
<line x1="2" y1="141.882" x2="575.247" y2="141.882" stroke="#ECE9F1"/>
<line x1="2" y1="207.437" x2="575.247" y2="207.437" stroke="#ECE9F1"/>
<path d="M2 197.916C27.2137 192.271 47.9473 157.853 78.0318 152.067C94.0664 148.984 106.912 154.985 121.244 164.31C135.576 173.635 145.312 86.2065 177.544 93.3954C204.144 99.328 198.561 126.822 224.625 129.279C250.69 131.737 262.096 145.648 289.615 152.067C317.134 158.487 306.89 78.7762 332.757 110.231C358.625 141.687 390.537 158.487 423.009 152.067C455.481 145.648 472.318 95.9632 487.728 93.3954C503.139 90.8276 511.457 38.6596 524.666 45.7209C537.875 52.7823 548.665 8.76831 576.734 8.76831" stroke="url(#paint0_linear)" stroke-width="4" stroke-linecap="round" stroke-linejoin="round"/>
<path d="M2 197.916C27.2137 192.271 46.7946 186.79 76.8791 181.005C92.9137 177.922 120.517 197.916 144.32 181.005C159.692 127.768 147.791 157.121 180.024 164.31C206.623 170.243 214.953 161.853 241.018 164.31C267.083 166.768 273.502 174.586 301.021 181.005C328.539 187.425 348.544 132.855 374.412 164.31C400.28 195.765 410.868 170.73 443.34 164.31C475.813 157.891 488.924 130.336 504.335 127.768C519.745 125.201 530.797 67.4701 544.006 74.5315C557.215 81.5929 548.665 48.8525 576.734 48.8525" stroke="url(#paint1_linear)" stroke-width="4" stroke-linecap="round" stroke-linejoin="round"/>
<path d="M4.332 230.09C3.43 230.09 2.76633 229.705 2.341 228.935L3.001 228.473C3.16233 228.759 3.34567 228.968 3.551 229.1C3.75633 229.225 3.98733 229.287 4.244 229.287C4.63267 229.287 4.92233 229.17 5.113 228.935C5.30367 228.693 5.399 228.297 5.399 227.747V222.742H6.323V227.835C6.323 228.143 6.28267 228.436 6.202 228.715C6.12867 228.986 6.01133 229.225 5.85 229.43C5.696 229.635 5.49067 229.797 5.234 229.914C4.98467 230.031 4.684 230.09 4.332 230.09ZM9.74916 230.09C9.17716 230.09 8.75916 229.914 8.49516 229.562C8.23849 229.21 8.11016 228.689 8.11016 228V224.612H9.02316V227.879C9.02316 228.385 9.10016 228.752 9.25416 228.979C9.41549 229.199 9.67216 229.309 10.0242 229.309C10.3028 229.309 10.5485 229.239 10.7612 229.1C10.9738 228.953 11.2085 228.722 11.4652 228.407V224.612H12.3672V229.958H11.6192L11.5422 229.122H11.5092C11.2598 229.415 10.9958 229.65 10.7172 229.826C10.4458 230.002 10.1232 230.09 9.74916 230.09ZM14.1706 229.958V224.612H14.9186L14.9956 225.382H15.0286C15.2852 225.125 15.5529 224.913 15.8316 224.744C16.1176 224.568 16.4476 224.48 16.8216 224.48C17.3862 224.48 17.7969 224.656 18.0536 225.008C18.3176 225.36 18.4496 225.881 18.4496 226.57V229.958H17.5476V226.691C17.5476 226.185 17.4669 225.822 17.3056 225.602C17.1442 225.375 16.8876 225.261 16.5356 225.261C16.2569 225.261 16.0112 225.331 15.7986 225.47C15.5859 225.609 15.3439 225.815 15.0726 226.086V229.958H14.1706ZM22.4323 225.217L22.1793 224.799C22.458 224.616 22.6633 224.421 22.7953 224.216C22.9347 224.003 23.0043 223.739 23.0043 223.424C22.9823 223.431 22.953 223.435 22.9163 223.435C22.7623 223.435 22.6267 223.387 22.5093 223.292C22.392 223.197 22.3333 223.061 22.3333 222.885C22.3333 222.694 22.3883 222.544 22.4983 222.434C22.6083 222.324 22.7477 222.269 22.9163 222.269C23.129 222.269 23.2977 222.357 23.4223 222.533C23.547 222.702 23.6093 222.947 23.6093 223.27C23.6093 223.71 23.5067 224.091 23.3013 224.414C23.1033 224.729 22.8137 224.997 22.4323 225.217ZM24.6656 229.958V229.419C25.1936 228.891 25.6629 228.414 26.0736 227.989C26.4843 227.564 26.8289 227.171 27.1076 226.812C27.3863 226.445 27.5989 226.112 27.7456 225.811C27.8923 225.503 27.9656 225.206 27.9656 224.92C27.9656 224.517 27.8556 224.187 27.6356 223.93C27.4156 223.673 27.0819 223.545 26.6346 223.545C26.3413 223.545 26.0699 223.629 25.8206 223.798C25.5713 223.959 25.3439 224.157 25.1386 224.392L24.6216 223.875C24.9149 223.552 25.2266 223.296 25.5566 223.105C25.8866 222.907 26.2826 222.808 26.7446 222.808C27.3973 222.808 27.9106 222.999 28.2846 223.38C28.6586 223.754 28.8456 224.253 28.8456 224.876C28.8456 225.206 28.7723 225.54 28.6256 225.877C28.4863 226.207 28.2883 226.552 28.0316 226.911C27.7823 227.263 27.4816 227.633 27.1296 228.022C26.7849 228.403 26.4036 228.81 25.9856 229.243C26.1763 229.228 26.3743 229.214 26.5796 229.199C26.7849 229.184 26.9793 229.177 27.1626 229.177H29.1976V229.958H24.6656ZM32.4324 230.09C31.721 230.09 31.1674 229.775 30.7714 229.144C30.3754 228.513 30.1774 227.608 30.1774 226.427C30.1774 225.246 30.3754 224.348 30.7714 223.732C31.1674 223.116 31.721 222.808 32.4324 222.808C33.1364 222.808 33.6864 223.116 34.0824 223.732C34.4784 224.348 34.6764 225.246 34.6764 226.427C34.6764 227.608 34.4784 228.513 34.0824 229.144C33.6864 229.775 33.1364 230.09 32.4324 230.09ZM32.4324 229.364C32.6377 229.364 32.821 229.309 32.9824 229.199C33.151 229.082 33.294 228.906 33.4114 228.671C33.536 228.429 33.6314 228.125 33.6974 227.758C33.7634 227.384 33.7964 226.94 33.7964 226.427C33.7964 225.914 33.7634 225.474 33.6974 225.107C33.6314 224.74 33.536 224.443 33.4114 224.216C33.294 223.981 33.151 223.809 32.9824 223.699C32.821 223.589 32.6377 223.534 32.4324 223.534C32.227 223.534 32.04 223.589 31.8714 223.699C31.7027 223.809 31.556 223.981 31.4314 224.216C31.314 224.443 31.2224 224.74 31.1564 225.107C31.0904 225.474 31.0574 225.914 31.0574 226.427C31.0574 227.454 31.182 228.202 31.4314 228.671C31.688 229.133 32.0217 229.364 32.4324 229.364Z" fill="#A2A3A5"/>
<path d="M95.0151 230.09C94.1131 230.09 93.4494 229.705 93.0241 228.935L93.6841 228.473C93.8454 228.759 94.0288 228.968 94.2341 229.1C94.4394 229.225 94.6704 229.287 94.9271 229.287C95.3158 229.287 95.6054 229.17 95.7961 228.935C95.9868 228.693 96.0821 228.297 96.0821 227.747V222.742H97.0061V227.835C97.0061 228.143 96.9658 228.436 96.8851 228.715C96.8118 228.986 96.6944 229.225 96.5331 229.43C96.3791 229.635 96.1738 229.797 95.9171 229.914C95.6678 230.031 95.3671 230.09 95.0151 230.09ZM100.432 230.09C99.8603 230.09 99.4423 229.914 99.1783 229.562C98.9216 229.21 98.7933 228.689 98.7933 228V224.612H99.7063V227.879C99.7063 228.385 99.7833 228.752 99.9373 228.979C100.099 229.199 100.355 229.309 100.707 229.309C100.986 229.309 101.232 229.239 101.444 229.1C101.657 228.953 101.892 228.722 102.148 228.407V224.612H103.05V229.958H102.302L102.225 229.122H102.192C101.943 229.415 101.679 229.65 101.4 229.826C101.129 230.002 100.806 230.09 100.432 230.09ZM105.811 230.09C105.466 230.09 105.22 229.987 105.074 229.782C104.927 229.577 104.854 229.276 104.854 228.88V222.126H105.756V228.946C105.756 229.093 105.781 229.195 105.833 229.254C105.884 229.313 105.943 229.342 106.009 229.342C106.038 229.342 106.064 229.342 106.086 229.342C106.115 229.342 106.155 229.335 106.207 229.32L106.328 230.002C106.269 230.031 106.199 230.053 106.119 230.068C106.038 230.083 105.935 230.09 105.811 230.09ZM109.904 225.217L109.651 224.799C109.929 224.616 110.135 224.421 110.267 224.216C110.406 224.003 110.476 223.739 110.476 223.424C110.454 223.431 110.424 223.435 110.388 223.435C110.234 223.435 110.098 223.387 109.981 223.292C109.863 223.197 109.805 223.061 109.805 222.885C109.805 222.694 109.86 222.544 109.97 222.434C110.08 222.324 110.219 222.269 110.388 222.269C110.6 222.269 110.769 222.357 110.894 222.533C111.018 222.702 111.081 222.947 111.081 223.27C111.081 223.71 110.978 224.091 110.773 224.414C110.575 224.729 110.285 224.997 109.904 225.217ZM112.137 229.958V229.419C112.665 228.891 113.134 228.414 113.545 227.989C113.955 227.564 114.3 227.171 114.579 226.812C114.857 226.445 115.07 226.112 115.217 225.811C115.363 225.503 115.437 225.206 115.437 224.92C115.437 224.517 115.327 224.187 115.107 223.93C114.887 223.673 114.553 223.545 114.106 223.545C113.812 223.545 113.541 223.629 113.292 223.798C113.042 223.959 112.815 224.157 112.61 224.392L112.093 223.875C112.386 223.552 112.698 223.296 113.028 223.105C113.358 222.907 113.754 222.808 114.216 222.808C114.868 222.808 115.382 222.999 115.756 223.38C116.13 223.754 116.317 224.253 116.317 224.876C116.317 225.206 116.243 225.54 116.097 225.877C115.957 226.207 115.759 226.552 115.503 226.911C115.253 227.263 114.953 227.633 114.601 228.022C114.256 228.403 113.875 228.81 113.457 229.243C113.647 229.228 113.845 229.214 114.051 229.199C114.256 229.184 114.45 229.177 114.634 229.177H116.669V229.958H112.137ZM119.904 230.09C119.192 230.09 118.639 229.775 118.243 229.144C117.847 228.513 117.649 227.608 117.649 226.427C117.649 225.246 117.847 224.348 118.243 223.732C118.639 223.116 119.192 222.808 119.904 222.808C120.608 222.808 121.158 223.116 121.554 223.732C121.95 224.348 122.148 225.246 122.148 226.427C122.148 227.608 121.95 228.513 121.554 229.144C121.158 229.775 120.608 230.09 119.904 230.09ZM119.904 229.364C120.109 229.364 120.292 229.309 120.454 229.199C120.622 229.082 120.765 228.906 120.883 228.671C121.007 228.429 121.103 228.125 121.169 227.758C121.235 227.384 121.268 226.94 121.268 226.427C121.268 225.914 121.235 225.474 121.169 225.107C121.103 224.74 121.007 224.443 120.883 224.216C120.765 223.981 120.622 223.809 120.454 223.699C120.292 223.589 120.109 223.534 119.904 223.534C119.698 223.534 119.511 223.589 119.343 223.699C119.174 223.809 119.027 223.981 118.903 224.216C118.785 224.443 118.694 224.74 118.628 225.107C118.562 225.474 118.529 225.914 118.529 226.427C118.529 227.454 118.653 228.202 118.903 228.671C119.159 229.133 119.493 229.364 119.904 229.364Z" fill="#A2A3A5"/>
<path d="M181.6 225.921L181.259 227.021H183.426L183.085 225.921C182.953 225.518 182.828 225.118 182.711 224.722C182.593 224.319 182.476 223.908 182.359 223.49H182.315C182.205 223.908 182.091 224.319 181.974 224.722C181.856 225.118 181.732 225.518 181.6 225.921ZM179.4 229.958L181.842 222.742H182.876L185.318 229.958H184.339L183.657 227.758H181.028L180.335 229.958H179.4ZM187.75 230.09C187.178 230.09 186.76 229.914 186.496 229.562C186.239 229.21 186.111 228.689 186.111 228V224.612H187.024V227.879C187.024 228.385 187.101 228.752 187.255 228.979C187.416 229.199 187.673 229.309 188.025 229.309C188.303 229.309 188.549 229.239 188.762 229.1C188.974 228.953 189.209 228.722 189.466 228.407V224.612H190.368V229.958H189.62L189.543 229.122H189.51C189.26 229.415 188.996 229.65 188.718 229.826C188.446 230.002 188.124 230.09 187.75 230.09ZM193.975 232.422C193.645 232.422 193.344 232.389 193.073 232.323C192.802 232.264 192.567 232.173 192.369 232.048C192.178 231.923 192.028 231.773 191.918 231.597C191.815 231.421 191.764 231.216 191.764 230.981C191.764 230.754 191.834 230.537 191.973 230.332C192.112 230.127 192.303 229.94 192.545 229.771V229.727C192.413 229.646 192.299 229.536 192.204 229.397C192.116 229.25 192.072 229.071 192.072 228.858C192.072 228.631 192.134 228.433 192.259 228.264C192.384 228.095 192.516 227.963 192.655 227.868V227.824C192.479 227.677 192.318 227.483 192.171 227.241C192.032 226.992 191.962 226.706 191.962 226.383C191.962 226.09 192.013 225.826 192.116 225.591C192.226 225.356 192.373 225.158 192.556 224.997C192.739 224.828 192.952 224.7 193.194 224.612C193.443 224.524 193.704 224.48 193.975 224.48C194.122 224.48 194.257 224.495 194.382 224.524C194.514 224.546 194.631 224.575 194.734 224.612H196.593V225.305H195.493C195.618 225.43 195.72 225.587 195.801 225.778C195.889 225.969 195.933 226.178 195.933 226.405C195.933 226.691 195.882 226.951 195.779 227.186C195.676 227.413 195.537 227.608 195.361 227.769C195.185 227.923 194.976 228.044 194.734 228.132C194.499 228.22 194.246 228.264 193.975 228.264C193.843 228.264 193.707 228.249 193.568 228.22C193.429 228.183 193.297 228.136 193.172 228.077C193.077 228.158 192.996 228.249 192.93 228.352C192.864 228.447 192.831 228.568 192.831 228.715C192.831 228.884 192.897 229.023 193.029 229.133C193.161 229.243 193.41 229.298 193.777 229.298H194.811C195.434 229.298 195.9 229.401 196.208 229.606C196.523 229.804 196.681 230.127 196.681 230.574C196.681 230.823 196.619 231.058 196.494 231.278C196.369 231.505 196.19 231.703 195.955 231.872C195.72 232.041 195.434 232.173 195.097 232.268C194.767 232.371 194.393 232.422 193.975 232.422ZM193.975 227.659C194.129 227.659 194.272 227.63 194.404 227.571C194.543 227.512 194.664 227.428 194.767 227.318C194.877 227.208 194.961 227.076 195.02 226.922C195.079 226.761 195.108 226.581 195.108 226.383C195.108 225.987 194.998 225.683 194.778 225.47C194.558 225.25 194.29 225.14 193.975 225.14C193.66 225.14 193.392 225.25 193.172 225.47C192.952 225.683 192.842 225.987 192.842 226.383C192.842 226.581 192.871 226.761 192.93 226.922C192.989 227.076 193.069 227.208 193.172 227.318C193.282 227.428 193.403 227.512 193.535 227.571C193.674 227.63 193.821 227.659 193.975 227.659ZM194.107 231.795C194.364 231.795 194.595 231.762 194.8 231.696C195.013 231.637 195.192 231.557 195.339 231.454C195.486 231.359 195.599 231.245 195.68 231.113C195.761 230.981 195.801 230.845 195.801 230.706C195.801 230.457 195.709 230.284 195.526 230.189C195.343 230.094 195.075 230.046 194.723 230.046H193.799C193.696 230.046 193.583 230.039 193.458 230.024C193.341 230.017 193.223 229.995 193.106 229.958C192.915 230.097 192.776 230.244 192.688 230.398C192.6 230.552 192.556 230.706 192.556 230.86C192.556 231.146 192.692 231.373 192.963 231.542C193.242 231.711 193.623 231.795 194.107 231.795ZM199.96 225.217L199.707 224.799C199.986 224.616 200.191 224.421 200.323 224.216C200.462 224.003 200.532 223.739 200.532 223.424C200.51 223.431 200.481 223.435 200.444 223.435C200.29 223.435 200.154 223.387 200.037 223.292C199.92 223.197 199.861 223.061 199.861 222.885C199.861 222.694 199.916 222.544 200.026 222.434C200.136 222.324 200.275 222.269 200.444 222.269C200.657 222.269 200.825 222.357 200.95 222.533C201.075 222.702 201.137 222.947 201.137 223.27C201.137 223.71 201.034 224.091 200.829 224.414C200.631 224.729 200.341 224.997 199.96 225.217ZM202.193 229.958V229.419C202.721 228.891 203.191 228.414 203.601 227.989C204.012 227.564 204.357 227.171 204.635 226.812C204.914 226.445 205.127 226.112 205.273 225.811C205.42 225.503 205.493 225.206 205.493 224.92C205.493 224.517 205.383 224.187 205.163 223.93C204.943 223.673 204.61 223.545 204.162 223.545C203.869 223.545 203.598 223.629 203.348 223.798C203.099 223.959 202.872 224.157 202.666 224.392L202.149 223.875C202.443 223.552 202.754 223.296 203.084 223.105C203.414 222.907 203.81 222.808 204.272 222.808C204.925 222.808 205.438 222.999 205.812 223.38C206.186 223.754 206.373 224.253 206.373 224.876C206.373 225.206 206.3 225.54 206.153 225.877C206.014 226.207 205.816 226.552 205.559 226.911C205.31 227.263 205.009 227.633 204.657 228.022C204.313 228.403 203.931 228.81 203.513 229.243C203.704 229.228 203.902 229.214 204.107 229.199C204.313 229.184 204.507 229.177 204.69 229.177H206.725V229.958H202.193ZM209.96 230.09C209.249 230.09 208.695 229.775 208.299 229.144C207.903 228.513 207.705 227.608 207.705 226.427C207.705 225.246 207.903 224.348 208.299 223.732C208.695 223.116 209.249 222.808 209.96 222.808C210.664 222.808 211.214 223.116 211.61 223.732C212.006 224.348 212.204 225.246 212.204 226.427C212.204 227.608 212.006 228.513 211.61 229.144C211.214 229.775 210.664 230.09 209.96 230.09ZM209.96 229.364C210.166 229.364 210.349 229.309 210.51 229.199C210.679 229.082 210.822 228.906 210.939 228.671C211.064 228.429 211.159 228.125 211.225 227.758C211.291 227.384 211.324 226.94 211.324 226.427C211.324 225.914 211.291 225.474 211.225 225.107C211.159 224.74 211.064 224.443 210.939 224.216C210.822 223.981 210.679 223.809 210.51 223.699C210.349 223.589 210.166 223.534 209.96 223.534C209.755 223.534 209.568 223.589 209.399 223.699C209.231 223.809 209.084 223.981 208.959 224.216C208.842 224.443 208.75 224.74 208.684 225.107C208.618 225.474 208.585 225.914 208.585 226.427C208.585 227.454 208.71 228.202 208.959 228.671C209.216 229.133 209.55 229.364 209.96 229.364Z" fill="#A2A3A5"/>
<path d="M273.042 230.09C272.536 230.09 272.066 229.995 271.634 229.804C271.201 229.613 270.827 229.353 270.512 229.023L271.062 228.385C271.318 228.656 271.619 228.876 271.964 229.045C272.316 229.206 272.679 229.287 273.053 229.287C273.529 229.287 273.9 229.181 274.164 228.968C274.428 228.748 274.56 228.462 274.56 228.11C274.56 227.927 274.527 227.773 274.461 227.648C274.402 227.516 274.318 227.406 274.208 227.318C274.105 227.223 273.98 227.138 273.834 227.065C273.687 226.992 273.529 226.915 273.361 226.834L272.327 226.383C272.158 226.31 271.986 226.222 271.81 226.119C271.634 226.016 271.476 225.892 271.337 225.745C271.197 225.598 271.084 225.426 270.996 225.228C270.908 225.023 270.864 224.788 270.864 224.524C270.864 224.253 270.919 224 271.029 223.765C271.146 223.53 271.304 223.329 271.502 223.16C271.707 222.984 271.945 222.848 272.217 222.753C272.495 222.658 272.8 222.61 273.13 222.61C273.562 222.61 273.962 222.694 274.329 222.863C274.695 223.024 275.007 223.237 275.264 223.501L274.769 224.095C274.549 223.882 274.303 223.717 274.032 223.6C273.768 223.475 273.467 223.413 273.13 223.413C272.726 223.413 272.4 223.508 272.151 223.699C271.909 223.882 271.788 224.139 271.788 224.469C271.788 224.645 271.821 224.795 271.887 224.92C271.96 225.037 272.055 225.144 272.173 225.239C272.29 225.327 272.418 225.408 272.558 225.481C272.697 225.547 272.84 225.609 272.987 225.668L274.01 226.108C274.215 226.196 274.409 226.299 274.593 226.416C274.776 226.526 274.934 226.658 275.066 226.812C275.198 226.959 275.3 227.135 275.374 227.34C275.454 227.538 275.495 227.769 275.495 228.033C275.495 228.319 275.436 228.587 275.319 228.836C275.209 229.085 275.047 229.305 274.835 229.496C274.622 229.679 274.365 229.826 274.065 229.936C273.764 230.039 273.423 230.09 273.042 230.09ZM278.995 230.09C278.635 230.09 278.298 230.028 277.983 229.903C277.675 229.771 277.403 229.588 277.169 229.353C276.941 229.111 276.762 228.818 276.63 228.473C276.498 228.128 276.432 227.736 276.432 227.296C276.432 226.856 276.498 226.464 276.63 226.119C276.769 225.767 276.949 225.47 277.169 225.228C277.396 224.986 277.653 224.803 277.939 224.678C278.225 224.546 278.522 224.48 278.83 224.48C279.167 224.48 279.468 224.539 279.732 224.656C280.003 224.773 280.227 224.942 280.403 225.162C280.586 225.382 280.725 225.646 280.821 225.954C280.916 226.262 280.964 226.607 280.964 226.988C280.964 227.083 280.96 227.179 280.953 227.274C280.953 227.362 280.945 227.439 280.931 227.505H277.323C277.359 228.077 277.535 228.532 277.851 228.869C278.173 229.199 278.591 229.364 279.105 229.364C279.361 229.364 279.596 229.327 279.809 229.254C280.029 229.173 280.238 229.071 280.436 228.946L280.755 229.54C280.52 229.687 280.26 229.815 279.974 229.925C279.688 230.035 279.361 230.09 278.995 230.09ZM277.312 226.856H280.172C280.172 226.313 280.054 225.903 279.82 225.624C279.592 225.338 279.27 225.195 278.852 225.195C278.661 225.195 278.478 225.232 278.302 225.305C278.133 225.378 277.979 225.488 277.84 225.635C277.7 225.774 277.583 225.947 277.488 226.152C277.4 226.357 277.341 226.592 277.312 226.856ZM282.285 232.213V224.612H283.033L283.11 225.228H283.143C283.385 225.023 283.649 224.847 283.935 224.7C284.228 224.553 284.532 224.48 284.848 224.48C285.192 224.48 285.497 224.546 285.761 224.678C286.025 224.803 286.245 224.986 286.421 225.228C286.597 225.463 286.729 225.749 286.817 226.086C286.912 226.416 286.96 226.79 286.96 227.208C286.96 227.663 286.897 228.07 286.773 228.429C286.648 228.781 286.479 229.082 286.267 229.331C286.054 229.58 285.808 229.771 285.53 229.903C285.251 230.028 284.958 230.09 284.65 230.09C284.4 230.09 284.151 230.035 283.902 229.925C283.66 229.815 283.414 229.665 283.165 229.474L283.187 230.409V232.213H282.285ZM284.496 229.331C284.716 229.331 284.917 229.283 285.101 229.188C285.291 229.085 285.453 228.946 285.585 228.77C285.724 228.587 285.83 228.363 285.904 228.099C285.984 227.835 286.025 227.538 286.025 227.208C286.025 226.915 285.999 226.647 285.948 226.405C285.896 226.163 285.812 225.958 285.695 225.789C285.585 225.613 285.438 225.477 285.255 225.382C285.079 225.287 284.866 225.239 284.617 225.239C284.389 225.239 284.158 225.301 283.924 225.426C283.696 225.551 283.451 225.73 283.187 225.965V228.77C283.429 228.975 283.663 229.122 283.891 229.21C284.118 229.291 284.32 229.331 284.496 229.331ZM290.633 225.217L290.38 224.799C290.658 224.616 290.864 224.421 290.996 224.216C291.135 224.003 291.205 223.739 291.205 223.424C291.183 223.431 291.153 223.435 291.117 223.435C290.963 223.435 290.827 223.387 290.71 223.292C290.592 223.197 290.534 223.061 290.534 222.885C290.534 222.694 290.589 222.544 290.699 222.434C290.809 222.324 290.948 222.269 291.117 222.269C291.329 222.269 291.498 222.357 291.623 222.533C291.747 222.702 291.81 222.947 291.81 223.27C291.81 223.71 291.707 224.091 291.502 224.414C291.304 224.729 291.014 224.997 290.633 225.217ZM292.866 229.958V229.419C293.394 228.891 293.863 228.414 294.274 227.989C294.684 227.564 295.029 227.171 295.308 226.812C295.586 226.445 295.799 226.112 295.946 225.811C296.092 225.503 296.166 225.206 296.166 224.92C296.166 224.517 296.056 224.187 295.836 223.93C295.616 223.673 295.282 223.545 294.835 223.545C294.541 223.545 294.27 223.629 294.021 223.798C293.771 223.959 293.544 224.157 293.339 224.392L292.822 223.875C293.115 223.552 293.427 223.296 293.757 223.105C294.087 222.907 294.483 222.808 294.945 222.808C295.597 222.808 296.111 222.999 296.485 223.38C296.859 223.754 297.046 224.253 297.046 224.876C297.046 225.206 296.972 225.54 296.826 225.877C296.686 226.207 296.488 226.552 296.232 226.911C295.982 227.263 295.682 227.633 295.33 228.022C294.985 228.403 294.604 228.81 294.186 229.243C294.376 229.228 294.574 229.214 294.78 229.199C294.985 229.184 295.179 229.177 295.363 229.177H297.398V229.958H292.866ZM300.633 230.09C299.921 230.09 299.368 229.775 298.972 229.144C298.576 228.513 298.378 227.608 298.378 226.427C298.378 225.246 298.576 224.348 298.972 223.732C299.368 223.116 299.921 222.808 300.633 222.808C301.337 222.808 301.887 223.116 302.283 223.732C302.679 224.348 302.877 225.246 302.877 226.427C302.877 227.608 302.679 228.513 302.283 229.144C301.887 229.775 301.337 230.09 300.633 230.09ZM300.633 229.364C300.838 229.364 301.021 229.309 301.183 229.199C301.351 229.082 301.494 228.906 301.612 228.671C301.736 228.429 301.832 228.125 301.898 227.758C301.964 227.384 301.997 226.94 301.997 226.427C301.997 225.914 301.964 225.474 301.898 225.107C301.832 224.74 301.736 224.443 301.612 224.216C301.494 223.981 301.351 223.809 301.183 223.699C301.021 223.589 300.838 223.534 300.633 223.534C300.427 223.534 300.24 223.589 300.072 223.699C299.903 223.809 299.756 223.981 299.632 224.216C299.514 224.443 299.423 224.74 299.357 225.107C299.291 225.474 299.258 225.914 299.258 226.427C299.258 227.454 299.382 228.202 299.632 228.671C299.888 229.133 300.222 229.364 300.633 229.364Z" fill="#A2A3A5"/>
<path d="M364.385 230.09C363.931 230.09 363.513 230.002 363.131 229.826C362.757 229.65 362.435 229.401 362.163 229.078C361.892 228.748 361.679 228.352 361.525 227.89C361.379 227.421 361.305 226.896 361.305 226.317C361.305 225.738 361.379 225.221 361.525 224.766C361.679 224.304 361.892 223.915 362.163 223.6C362.435 223.277 362.757 223.032 363.131 222.863C363.513 222.694 363.931 222.61 364.385 222.61C364.84 222.61 365.254 222.698 365.628 222.874C366.01 223.043 366.336 223.288 366.607 223.611C366.886 223.926 367.099 224.315 367.245 224.777C367.399 225.232 367.476 225.745 367.476 226.317C367.476 226.896 367.399 227.421 367.245 227.89C367.099 228.352 366.886 228.748 366.607 229.078C366.336 229.401 366.01 229.65 365.628 229.826C365.254 230.002 364.84 230.09 364.385 230.09ZM364.385 229.287C364.708 229.287 364.998 229.217 365.254 229.078C365.518 228.939 365.742 228.741 365.925 228.484C366.116 228.22 366.263 227.908 366.365 227.549C366.468 227.182 366.519 226.772 366.519 226.317C366.519 225.87 366.468 225.466 366.365 225.107C366.263 224.748 366.116 224.443 365.925 224.194C365.742 223.945 365.518 223.754 365.254 223.622C364.998 223.483 364.708 223.413 364.385 223.413C364.063 223.413 363.769 223.483 363.505 223.622C363.249 223.754 363.025 223.945 362.834 224.194C362.651 224.443 362.508 224.748 362.405 225.107C362.303 225.466 362.251 225.87 362.251 226.317C362.251 226.772 362.303 227.182 362.405 227.549C362.508 227.908 362.651 228.22 362.834 228.484C363.025 228.741 363.249 228.939 363.505 229.078C363.769 229.217 364.063 229.287 364.385 229.287ZM371.052 230.09C370.7 230.09 370.37 230.028 370.062 229.903C369.754 229.778 369.486 229.599 369.259 229.364C369.039 229.122 368.863 228.829 368.731 228.484C368.606 228.132 368.544 227.736 368.544 227.296C368.544 226.849 368.614 226.453 368.753 226.108C368.892 225.756 369.079 225.459 369.314 225.217C369.549 224.975 369.82 224.792 370.128 224.667C370.443 224.542 370.773 224.48 371.118 224.48C371.47 224.48 371.771 224.542 372.02 224.667C372.269 224.792 372.489 224.938 372.68 225.107L372.218 225.701C372.064 225.562 371.899 225.448 371.723 225.36C371.554 225.272 371.364 225.228 371.151 225.228C370.909 225.228 370.685 225.279 370.48 225.382C370.275 225.477 370.099 225.617 369.952 225.8C369.805 225.983 369.688 226.203 369.6 226.46C369.519 226.709 369.479 226.988 369.479 227.296C369.479 227.604 369.519 227.883 369.6 228.132C369.681 228.381 369.791 228.598 369.93 228.781C370.077 228.957 370.253 229.096 370.458 229.199C370.663 229.294 370.887 229.342 371.129 229.342C371.378 229.342 371.606 229.291 371.811 229.188C372.024 229.078 372.214 228.95 372.383 228.803L372.779 229.408C372.537 229.621 372.269 229.789 371.976 229.914C371.683 230.031 371.375 230.09 371.052 230.09ZM375.532 230.09C375.246 230.09 375.004 230.046 374.806 229.958C374.616 229.87 374.458 229.749 374.333 229.595C374.216 229.441 374.132 229.254 374.08 229.034C374.029 228.814 374.003 228.572 374.003 228.308V225.349H373.211V224.667L374.047 224.612L374.157 223.116H374.916V224.612H376.357V225.349H374.916V228.319C374.916 228.649 374.975 228.906 375.092 229.089C375.217 229.265 375.433 229.353 375.741 229.353C375.837 229.353 375.939 229.338 376.049 229.309C376.159 229.28 376.258 229.247 376.346 229.21L376.522 229.892C376.376 229.943 376.214 229.987 376.038 230.024C375.87 230.068 375.701 230.09 375.532 230.09ZM379.812 225.217L379.559 224.799C379.838 224.616 380.043 224.421 380.175 224.216C380.315 224.003 380.384 223.739 380.384 223.424C380.362 223.431 380.333 223.435 380.296 223.435C380.142 223.435 380.007 223.387 379.889 223.292C379.772 223.197 379.713 223.061 379.713 222.885C379.713 222.694 379.768 222.544 379.878 222.434C379.988 222.324 380.128 222.269 380.296 222.269C380.509 222.269 380.678 222.357 380.802 222.533C380.927 222.702 380.989 222.947 380.989 223.27C380.989 223.71 380.887 224.091 380.681 224.414C380.483 224.729 380.194 224.997 379.812 225.217ZM382.045 229.958V229.419C382.573 228.891 383.043 228.414 383.453 227.989C383.864 227.564 384.209 227.171 384.487 226.812C384.766 226.445 384.979 226.112 385.125 225.811C385.272 225.503 385.345 225.206 385.345 224.92C385.345 224.517 385.235 224.187 385.015 223.93C384.795 223.673 384.462 223.545 384.014 223.545C383.721 223.545 383.45 223.629 383.2 223.798C382.951 223.959 382.724 224.157 382.518 224.392L382.001 223.875C382.295 223.552 382.606 223.296 382.936 223.105C383.266 222.907 383.662 222.808 384.124 222.808C384.777 222.808 385.29 222.999 385.664 223.38C386.038 223.754 386.225 224.253 386.225 224.876C386.225 225.206 386.152 225.54 386.005 225.877C385.866 226.207 385.668 226.552 385.411 226.911C385.162 227.263 384.861 227.633 384.509 228.022C384.165 228.403 383.783 228.81 383.365 229.243C383.556 229.228 383.754 229.214 383.959 229.199C384.165 229.184 384.359 229.177 384.542 229.177H386.577V229.958H382.045ZM389.812 230.09C389.101 230.09 388.547 229.775 388.151 229.144C387.755 228.513 387.557 227.608 387.557 226.427C387.557 225.246 387.755 224.348 388.151 223.732C388.547 223.116 389.101 222.808 389.812 222.808C390.516 222.808 391.066 223.116 391.462 223.732C391.858 224.348 392.056 225.246 392.056 226.427C392.056 227.608 391.858 228.513 391.462 229.144C391.066 229.775 390.516 230.09 389.812 230.09ZM389.812 229.364C390.018 229.364 390.201 229.309 390.362 229.199C390.531 229.082 390.674 228.906 390.791 228.671C390.916 228.429 391.011 228.125 391.077 227.758C391.143 227.384 391.176 226.94 391.176 226.427C391.176 225.914 391.143 225.474 391.077 225.107C391.011 224.74 390.916 224.443 390.791 224.216C390.674 223.981 390.531 223.809 390.362 223.699C390.201 223.589 390.018 223.534 389.812 223.534C389.607 223.534 389.42 223.589 389.251 223.699C389.083 223.809 388.936 223.981 388.811 224.216C388.694 224.443 388.602 224.74 388.536 225.107C388.47 225.474 388.437 225.914 388.437 226.427C388.437 227.454 388.562 228.202 388.811 228.671C389.068 229.133 389.402 229.364 389.812 229.364Z" fill="#A2A3A5"/>
<path d="M450.407 229.958V222.742H451.353L453.96 227.274L454.741 228.77H454.785C454.763 228.403 454.737 228.026 454.708 227.637C454.686 227.241 454.675 226.852 454.675 226.471V222.742H455.544V229.958H454.598L451.98 225.415L451.199 223.93H451.155C451.184 224.297 451.21 224.671 451.232 225.052C451.261 225.426 451.276 225.804 451.276 226.185V229.958H450.407ZM459.52 230.09C459.19 230.09 458.874 230.028 458.574 229.903C458.28 229.778 458.02 229.599 457.793 229.364C457.565 229.122 457.382 228.829 457.243 228.484C457.111 228.132 457.045 227.736 457.045 227.296C457.045 226.849 457.111 226.453 457.243 226.108C457.382 225.756 457.565 225.459 457.793 225.217C458.02 224.975 458.28 224.792 458.574 224.667C458.874 224.542 459.19 224.48 459.52 224.48C459.85 224.48 460.161 224.542 460.455 224.667C460.755 224.792 461.019 224.975 461.247 225.217C461.474 225.459 461.654 225.756 461.786 226.108C461.925 226.453 461.995 226.849 461.995 227.296C461.995 227.736 461.925 228.132 461.786 228.484C461.654 228.829 461.474 229.122 461.247 229.364C461.019 229.599 460.755 229.778 460.455 229.903C460.161 230.028 459.85 230.09 459.52 230.09ZM459.52 229.342C459.747 229.342 459.956 229.294 460.147 229.199C460.337 229.096 460.499 228.957 460.631 228.781C460.77 228.598 460.876 228.381 460.95 228.132C461.023 227.883 461.06 227.604 461.06 227.296C461.06 226.988 461.023 226.709 460.95 226.46C460.876 226.203 460.77 225.983 460.631 225.8C460.499 225.617 460.337 225.477 460.147 225.382C459.956 225.279 459.747 225.228 459.52 225.228C459.292 225.228 459.083 225.279 458.893 225.382C458.702 225.477 458.537 225.617 458.398 225.8C458.266 225.983 458.163 226.203 458.09 226.46C458.016 226.709 457.98 226.988 457.98 227.296C457.98 227.604 458.016 227.883 458.09 228.132C458.163 228.381 458.266 228.598 458.398 228.781C458.537 228.957 458.702 229.096 458.893 229.199C459.083 229.294 459.292 229.342 459.52 229.342ZM464.515 229.958L462.59 224.612H463.525L464.537 227.648C464.617 227.912 464.698 228.176 464.779 228.44C464.867 228.704 464.951 228.964 465.032 229.221H465.076C465.156 228.964 465.237 228.704 465.318 228.44C465.398 228.176 465.479 227.912 465.56 227.648L466.572 224.612H467.463L465.571 229.958H464.515ZM470.74 225.217L470.487 224.799C470.766 224.616 470.971 224.421 471.103 224.216C471.243 224.003 471.312 223.739 471.312 223.424C471.29 223.431 471.261 223.435 471.224 223.435C471.07 223.435 470.935 223.387 470.817 223.292C470.7 223.197 470.641 223.061 470.641 222.885C470.641 222.694 470.696 222.544 470.806 222.434C470.916 222.324 471.056 222.269 471.224 222.269C471.437 222.269 471.606 222.357 471.73 222.533C471.855 222.702 471.917 222.947 471.917 223.27C471.917 223.71 471.815 224.091 471.609 224.414C471.411 224.729 471.122 224.997 470.74 225.217ZM472.974 229.958V229.419C473.502 228.891 473.971 228.414 474.382 227.989C474.792 227.564 475.137 227.171 475.416 226.812C475.694 226.445 475.907 226.112 476.054 225.811C476.2 225.503 476.274 225.206 476.274 224.92C476.274 224.517 476.164 224.187 475.944 223.93C475.724 223.673 475.39 223.545 474.943 223.545C474.649 223.545 474.378 223.629 474.129 223.798C473.879 223.959 473.652 224.157 473.447 224.392L472.93 223.875C473.223 223.552 473.535 223.296 473.865 223.105C474.195 222.907 474.591 222.808 475.053 222.808C475.705 222.808 476.219 222.999 476.593 223.38C476.967 223.754 477.154 224.253 477.154 224.876C477.154 225.206 477.08 225.54 476.934 225.877C476.794 226.207 476.596 226.552 476.34 226.911C476.09 227.263 475.79 227.633 475.438 228.022C475.093 228.403 474.712 228.81 474.294 229.243C474.484 229.228 474.682 229.214 474.888 229.199C475.093 229.184 475.287 229.177 475.471 229.177H477.506V229.958H472.974ZM480.74 230.09C480.029 230.09 479.475 229.775 479.079 229.144C478.683 228.513 478.485 227.608 478.485 226.427C478.485 225.246 478.683 224.348 479.079 223.732C479.475 223.116 480.029 222.808 480.74 222.808C481.444 222.808 481.994 223.116 482.39 223.732C482.786 224.348 482.984 225.246 482.984 226.427C482.984 227.608 482.786 228.513 482.39 229.144C481.994 229.775 481.444 230.09 480.74 230.09ZM480.74 229.364C480.946 229.364 481.129 229.309 481.29 229.199C481.459 229.082 481.602 228.906 481.719 228.671C481.844 228.429 481.939 228.125 482.005 227.758C482.071 227.384 482.104 226.94 482.104 226.427C482.104 225.914 482.071 225.474 482.005 225.107C481.939 224.74 481.844 224.443 481.719 224.216C481.602 223.981 481.459 223.809 481.29 223.699C481.129 223.589 480.946 223.534 480.74 223.534C480.535 223.534 480.348 223.589 480.179 223.699C480.011 223.809 479.864 223.981 479.739 224.216C479.622 224.443 479.53 224.74 479.464 225.107C479.398 225.474 479.365 225.914 479.365 226.427C479.365 227.454 479.49 228.202 479.739 228.671C479.996 229.133 480.33 229.364 480.74 229.364Z" fill="#A2A3A5"/>
<path d="M542.09 229.958V222.742H543.894C545.009 222.742 545.856 223.05 546.435 223.666C547.014 224.282 547.304 225.166 547.304 226.317C547.304 226.889 547.231 227.402 547.084 227.857C546.937 228.304 546.721 228.686 546.435 229.001C546.149 229.309 545.797 229.547 545.379 229.716C544.961 229.877 544.481 229.958 543.938 229.958H542.09ZM543.003 229.21H543.828C544.671 229.21 545.302 228.957 545.72 228.451C546.145 227.945 546.358 227.234 546.358 226.317C546.358 225.4 546.145 224.7 545.72 224.216C545.302 223.732 544.671 223.49 543.828 223.49H543.003V229.21ZM550.937 230.09C550.577 230.09 550.24 230.028 549.925 229.903C549.617 229.771 549.345 229.588 549.111 229.353C548.883 229.111 548.704 228.818 548.572 228.473C548.44 228.128 548.374 227.736 548.374 227.296C548.374 226.856 548.44 226.464 548.572 226.119C548.711 225.767 548.891 225.47 549.111 225.228C549.338 224.986 549.595 224.803 549.881 224.678C550.167 224.546 550.464 224.48 550.772 224.48C551.109 224.48 551.41 224.539 551.674 224.656C551.945 224.773 552.169 224.942 552.345 225.162C552.528 225.382 552.667 225.646 552.763 225.954C552.858 226.262 552.906 226.607 552.906 226.988C552.906 227.083 552.902 227.179 552.895 227.274C552.895 227.362 552.887 227.439 552.873 227.505H549.265C549.301 228.077 549.477 228.532 549.793 228.869C550.115 229.199 550.533 229.364 551.047 229.364C551.303 229.364 551.538 229.327 551.751 229.254C551.971 229.173 552.18 229.071 552.378 228.946L552.697 229.54C552.462 229.687 552.202 229.815 551.916 229.925C551.63 230.035 551.303 230.09 550.937 230.09ZM549.254 226.856H552.114C552.114 226.313 551.996 225.903 551.762 225.624C551.534 225.338 551.212 225.195 550.794 225.195C550.603 225.195 550.42 225.232 550.244 225.305C550.075 225.378 549.921 225.488 549.782 225.635C549.642 225.774 549.525 225.947 549.43 226.152C549.342 226.357 549.283 226.592 549.254 226.856ZM556.339 230.09C555.987 230.09 555.657 230.028 555.349 229.903C555.041 229.778 554.773 229.599 554.546 229.364C554.326 229.122 554.15 228.829 554.018 228.484C553.893 228.132 553.831 227.736 553.831 227.296C553.831 226.849 553.9 226.453 554.04 226.108C554.179 225.756 554.366 225.459 554.601 225.217C554.835 224.975 555.107 224.792 555.415 224.667C555.73 224.542 556.06 224.48 556.405 224.48C556.757 224.48 557.057 224.542 557.307 224.667C557.556 224.792 557.776 224.938 557.967 225.107L557.505 225.701C557.351 225.562 557.186 225.448 557.01 225.36C556.841 225.272 556.65 225.228 556.438 225.228C556.196 225.228 555.972 225.279 555.767 225.382C555.561 225.477 555.385 225.617 555.239 225.8C555.092 225.983 554.975 226.203 554.887 226.46C554.806 226.709 554.766 226.988 554.766 227.296C554.766 227.604 554.806 227.883 554.887 228.132C554.967 228.381 555.077 228.598 555.217 228.781C555.363 228.957 555.539 229.096 555.745 229.199C555.95 229.294 556.174 229.342 556.416 229.342C556.665 229.342 556.892 229.291 557.098 229.188C557.31 229.078 557.501 228.95 557.67 228.803L558.066 229.408C557.824 229.621 557.556 229.789 557.263 229.914C556.969 230.031 556.661 230.09 556.339 230.09ZM561.489 225.217L561.236 224.799C561.515 224.616 561.72 224.421 561.852 224.216C561.992 224.003 562.061 223.739 562.061 223.424C562.039 223.431 562.01 223.435 561.973 223.435C561.819 223.435 561.684 223.387 561.566 223.292C561.449 223.197 561.39 223.061 561.39 222.885C561.39 222.694 561.445 222.544 561.555 222.434C561.665 222.324 561.805 222.269 561.973 222.269C562.186 222.269 562.355 222.357 562.479 222.533C562.604 222.702 562.666 222.947 562.666 223.27C562.666 223.71 562.564 224.091 562.358 224.414C562.16 224.729 561.871 224.997 561.489 225.217ZM563.723 229.958V229.419C564.251 228.891 564.72 228.414 565.131 227.989C565.541 227.564 565.886 227.171 566.165 226.812C566.443 226.445 566.656 226.112 566.803 225.811C566.949 225.503 567.023 225.206 567.023 224.92C567.023 224.517 566.913 224.187 566.693 223.93C566.473 223.673 566.139 223.545 565.692 223.545C565.398 223.545 565.127 223.629 564.878 223.798C564.628 223.959 564.401 224.157 564.196 224.392L563.679 223.875C563.972 223.552 564.284 223.296 564.614 223.105C564.944 222.907 565.34 222.808 565.802 222.808C566.454 222.808 566.968 222.999 567.342 223.38C567.716 223.754 567.903 224.253 567.903 224.876C567.903 225.206 567.829 225.54 567.683 225.877C567.543 226.207 567.345 226.552 567.089 226.911C566.839 227.263 566.539 227.633 566.187 228.022C565.842 228.403 565.461 228.81 565.043 229.243C565.233 229.228 565.431 229.214 565.637 229.199C565.842 229.184 566.036 229.177 566.22 229.177H568.255V229.958H563.723ZM571.489 230.09C570.778 230.09 570.224 229.775 569.828 229.144C569.432 228.513 569.234 227.608 569.234 226.427C569.234 225.246 569.432 224.348 569.828 223.732C570.224 223.116 570.778 222.808 571.489 222.808C572.193 222.808 572.743 223.116 573.139 223.732C573.535 224.348 573.733 225.246 573.733 226.427C573.733 227.608 573.535 228.513 573.139 229.144C572.743 229.775 572.193 230.09 571.489 230.09ZM571.489 229.364C571.695 229.364 571.878 229.309 572.039 229.199C572.208 229.082 572.351 228.906 572.468 228.671C572.593 228.429 572.688 228.125 572.754 227.758C572.82 227.384 572.853 226.94 572.853 226.427C572.853 225.914 572.82 225.474 572.754 225.107C572.688 224.74 572.593 224.443 572.468 224.216C572.351 223.981 572.208 223.809 572.039 223.699C571.878 223.589 571.695 223.534 571.489 223.534C571.284 223.534 571.097 223.589 570.928 223.699C570.76 223.809 570.613 223.981 570.488 224.216C570.371 224.443 570.279 224.74 570.213 225.107C570.147 225.474 570.114 225.914 570.114 226.427C570.114 227.454 570.239 228.202 570.488 228.671C570.745 229.133 571.079 229.364 571.489 229.364Z" fill="#A2A3A5"/>
<defs>
<linearGradient id="paint0_linear" x1="-220.804" y1="108.601" x2="-130.324" y2="400.026" gradientUnits="userSpaceOnUse">
<stop stop-color="#FF409A"/>
<stop offset="1" stop-color="#C438EF"/>
</linearGradient>
<linearGradient id="paint1_linear" x1="552.787" y1="39.5298" x2="479.067" y2="345.633" gradientUnits="userSpaceOnUse">
<stop stop-color="#36CBFF"/>
<stop offset="1" stop-color="#2E8EF7"/>
</linearGradient>
</defs>
</svg>
