<svg width="610" height="190" viewBox="0 0 610 190" fill="none" xmlns="http://www.w3.org/2000/svg">
<path d="M586.869 12V11.252H588.475V6.082H587.199V5.499C587.522 5.44033 587.8 5.37067 588.035 5.29C588.277 5.202 588.493 5.09933 588.684 4.982H589.377V11.252H590.829V12H586.869ZM594.042 12.132C593.763 12.132 593.506 12.1027 593.272 12.044C593.044 11.9927 592.835 11.923 592.645 11.835C592.461 11.747 592.293 11.648 592.139 11.538C591.992 11.4207 591.86 11.2997 591.743 11.175L592.183 10.581C592.388 10.7937 592.63 10.9807 592.909 11.142C593.195 11.3033 593.543 11.384 593.954 11.384C594.166 11.384 594.364 11.3473 594.548 11.274C594.738 11.1933 594.903 11.0833 595.043 10.944C595.182 10.8047 595.292 10.636 595.373 10.438C595.453 10.24 595.494 10.02 595.494 9.778C595.494 9.294 595.358 8.91633 595.087 8.645C594.815 8.37367 594.452 8.238 593.998 8.238C593.756 8.238 593.547 8.27467 593.371 8.348C593.202 8.42133 593.011 8.52767 592.799 8.667L592.315 8.359L592.546 4.982H596.055V5.763H593.338L593.151 7.842C593.319 7.754 593.488 7.68433 593.657 7.633C593.825 7.58167 594.016 7.556 594.229 7.556C594.529 7.556 594.812 7.6 595.076 7.688C595.34 7.776 595.571 7.91167 595.769 8.095C595.967 8.271 596.121 8.49833 596.231 8.777C596.348 9.04833 596.407 9.37467 596.407 9.756C596.407 10.1373 596.341 10.4747 596.209 10.768C596.077 11.0613 595.901 11.3107 595.681 11.516C595.461 11.714 595.208 11.868 594.922 11.978C594.643 12.0807 594.35 12.132 594.042 12.132ZM599.675 12.132C598.963 12.132 598.41 11.8167 598.014 11.186C597.618 10.5553 597.42 9.64967 597.42 8.469C597.42 7.28833 597.618 6.39 598.014 5.774C598.41 5.158 598.963 4.85 599.675 4.85C600.379 4.85 600.929 5.158 601.325 5.774C601.721 6.39 601.919 7.28833 601.919 8.469C601.919 9.64967 601.721 10.5553 601.325 11.186C600.929 11.8167 600.379 12.132 599.675 12.132ZM599.675 11.406C599.88 11.406 600.063 11.351 600.225 11.241C600.393 11.1237 600.536 10.9477 600.654 10.713C600.778 10.471 600.874 10.1667 600.94 9.8C601.006 9.426 601.039 8.98233 601.039 8.469C601.039 7.95567 601.006 7.51567 600.94 7.149C600.874 6.78233 600.778 6.48533 600.654 6.258C600.536 6.02333 600.393 5.851 600.225 5.741C600.063 5.631 599.88 5.576 599.675 5.576C599.469 5.576 599.282 5.631 599.114 5.741C598.945 5.851 598.798 6.02333 598.674 6.258C598.556 6.48533 598.465 6.78233 598.399 7.149C598.333 7.51567 598.3 7.95567 598.3 8.469C598.3 9.49567 598.424 10.2437 598.674 10.713C598.93 11.175 599.264 11.406 599.675 11.406ZM605.142 12.132C604.431 12.132 603.877 11.8167 603.481 11.186C603.085 10.5553 602.887 9.64967 602.887 8.469C602.887 7.28833 603.085 6.39 603.481 5.774C603.877 5.158 604.431 4.85 605.142 4.85C605.846 4.85 606.396 5.158 606.792 5.774C607.188 6.39 607.386 7.28833 607.386 8.469C607.386 9.64967 607.188 10.5553 606.792 11.186C606.396 11.8167 605.846 12.132 605.142 12.132ZM605.142 11.406C605.348 11.406 605.531 11.351 605.692 11.241C605.861 11.1237 606.004 10.9477 606.121 10.713C606.246 10.471 606.341 10.1667 606.407 9.8C606.473 9.426 606.506 8.98233 606.506 8.469C606.506 7.95567 606.473 7.51567 606.407 7.149C606.341 6.78233 606.246 6.48533 606.121 6.258C606.004 6.02333 605.861 5.851 605.692 5.741C605.531 5.631 605.348 5.576 605.142 5.576C604.937 5.576 604.75 5.631 604.581 5.741C604.413 5.851 604.266 6.02333 604.141 6.258C604.024 6.48533 603.932 6.78233 603.866 7.149C603.8 7.51567 603.767 7.95567 603.767 8.469C603.767 9.49567 603.892 10.2437 604.141 10.713C604.398 11.175 604.732 11.406 605.142 11.406Z" fill="#A2A3A5"/>
<path d="M586.869 64.3362V63.5882H588.475V58.4182H587.199V57.8352C587.522 57.7765 587.8 57.7068 588.035 57.6262C588.277 57.5382 588.493 57.4355 588.684 57.3182H589.377V63.5882H590.829V64.3362H586.869ZM594.207 64.4682C593.495 64.4682 592.942 64.1528 592.546 63.5222C592.15 62.8915 591.952 61.9858 591.952 60.8052C591.952 59.6245 592.15 58.7262 592.546 58.1102C592.942 57.4942 593.495 57.1862 594.207 57.1862C594.911 57.1862 595.461 57.4942 595.857 58.1102C596.253 58.7262 596.451 59.6245 596.451 60.8052C596.451 61.9858 596.253 62.8915 595.857 63.5222C595.461 64.1528 594.911 64.4682 594.207 64.4682ZM594.207 63.7422C594.412 63.7422 594.595 63.6872 594.757 63.5772C594.925 63.4598 595.068 63.2838 595.186 63.0492C595.31 62.8072 595.406 62.5028 595.472 62.1362C595.538 61.7622 595.571 61.3185 595.571 60.8052C595.571 60.2918 595.538 59.8518 595.472 59.4852C595.406 59.1185 595.31 58.8215 595.186 58.5942C595.068 58.3595 594.925 58.1872 594.757 58.0772C594.595 57.9672 594.412 57.9122 594.207 57.9122C594.001 57.9122 593.814 57.9672 593.646 58.0772C593.477 58.1872 593.33 58.3595 593.206 58.5942C593.088 58.8215 592.997 59.1185 592.931 59.4852C592.865 59.8518 592.832 60.2918 592.832 60.8052C592.832 61.8318 592.956 62.5798 593.206 63.0492C593.462 63.5112 593.796 63.7422 594.207 63.7422ZM599.675 64.4682C598.963 64.4682 598.41 64.1528 598.014 63.5222C597.618 62.8915 597.42 61.9858 597.42 60.8052C597.42 59.6245 597.618 58.7262 598.014 58.1102C598.41 57.4942 598.963 57.1862 599.675 57.1862C600.379 57.1862 600.929 57.4942 601.325 58.1102C601.721 58.7262 601.919 59.6245 601.919 60.8052C601.919 61.9858 601.721 62.8915 601.325 63.5222C600.929 64.1528 600.379 64.4682 599.675 64.4682ZM599.675 63.7422C599.88 63.7422 600.063 63.6872 600.225 63.5772C600.393 63.4598 600.536 63.2838 600.654 63.0492C600.778 62.8072 600.874 62.5028 600.94 62.1362C601.006 61.7622 601.039 61.3185 601.039 60.8052C601.039 60.2918 601.006 59.8518 600.94 59.4852C600.874 59.1185 600.778 58.8215 600.654 58.5942C600.536 58.3595 600.393 58.1872 600.225 58.0772C600.063 57.9672 599.88 57.9122 599.675 57.9122C599.469 57.9122 599.282 57.9672 599.114 58.0772C598.945 58.1872 598.798 58.3595 598.674 58.5942C598.556 58.8215 598.465 59.1185 598.399 59.4852C598.333 59.8518 598.3 60.2918 598.3 60.8052C598.3 61.8318 598.424 62.5798 598.674 63.0492C598.93 63.5112 599.264 63.7422 599.675 63.7422ZM605.142 64.4682C604.431 64.4682 603.877 64.1528 603.481 63.5222C603.085 62.8915 602.887 61.9858 602.887 60.8052C602.887 59.6245 603.085 58.7262 603.481 58.1102C603.877 57.4942 604.431 57.1862 605.142 57.1862C605.846 57.1862 606.396 57.4942 606.792 58.1102C607.188 58.7262 607.386 59.6245 607.386 60.8052C607.386 61.9858 607.188 62.8915 606.792 63.5222C606.396 64.1528 605.846 64.4682 605.142 64.4682ZM605.142 63.7422C605.348 63.7422 605.531 63.6872 605.692 63.5772C605.861 63.4598 606.004 63.2838 606.121 63.0492C606.246 62.8072 606.341 62.5028 606.407 62.1362C606.473 61.7622 606.506 61.3185 606.506 60.8052C606.506 60.2918 606.473 59.8518 606.407 59.4852C606.341 59.1185 606.246 58.8215 606.121 58.5942C606.004 58.3595 605.861 58.1872 605.692 58.0772C605.531 57.9672 605.348 57.9122 605.142 57.9122C604.937 57.9122 604.75 57.9672 604.581 58.0772C604.413 58.1872 604.266 58.3595 604.141 58.5942C604.024 58.8215 603.932 59.1185 603.866 59.4852C603.8 59.8518 603.767 60.2918 603.767 60.8052C603.767 61.8318 603.892 62.5798 604.141 63.0492C604.398 63.5112 604.732 63.7422 605.142 63.7422Z" fill="#A2A3A5"/>
<path d="M588.574 116.804C588.295 116.804 588.039 116.775 587.804 116.716C587.577 116.665 587.368 116.595 587.177 116.507C586.994 116.419 586.825 116.32 586.671 116.21C586.524 116.093 586.392 115.972 586.275 115.847L586.715 115.253C586.92 115.466 587.162 115.653 587.441 115.814C587.727 115.976 588.075 116.056 588.486 116.056C588.699 116.056 588.897 116.02 589.08 115.946C589.271 115.866 589.436 115.756 589.575 115.616C589.714 115.477 589.824 115.308 589.905 115.11C589.986 114.912 590.026 114.692 590.026 114.45C590.026 113.966 589.89 113.589 589.619 113.317C589.348 113.046 588.985 112.91 588.53 112.91C588.288 112.91 588.079 112.947 587.903 113.02C587.734 113.094 587.544 113.2 587.331 113.339L586.847 113.031L587.078 109.654H590.587V110.435H587.87L587.683 112.514C587.852 112.426 588.02 112.357 588.189 112.305C588.358 112.254 588.548 112.228 588.761 112.228C589.062 112.228 589.344 112.272 589.608 112.36C589.872 112.448 590.103 112.584 590.301 112.767C590.499 112.943 590.653 113.171 590.763 113.449C590.88 113.721 590.939 114.047 590.939 114.428C590.939 114.81 590.873 115.147 590.741 115.44C590.609 115.734 590.433 115.983 590.213 116.188C589.993 116.386 589.74 116.54 589.454 116.65C589.175 116.753 588.882 116.804 588.574 116.804ZM594.207 116.804C593.495 116.804 592.942 116.489 592.546 115.858C592.15 115.228 591.952 114.322 591.952 113.141C591.952 111.961 592.15 111.062 592.546 110.446C592.942 109.83 593.495 109.522 594.207 109.522C594.911 109.522 595.461 109.83 595.857 110.446C596.253 111.062 596.451 111.961 596.451 113.141C596.451 114.322 596.253 115.228 595.857 115.858C595.461 116.489 594.911 116.804 594.207 116.804ZM594.207 116.078C594.412 116.078 594.595 116.023 594.757 115.913C594.925 115.796 595.068 115.62 595.186 115.385C595.31 115.143 595.406 114.839 595.472 114.472C595.538 114.098 595.571 113.655 595.571 113.141C595.571 112.628 595.538 112.188 595.472 111.821C595.406 111.455 595.31 111.158 595.186 110.93C595.068 110.696 594.925 110.523 594.757 110.413C594.595 110.303 594.412 110.248 594.207 110.248C594.001 110.248 593.814 110.303 593.646 110.413C593.477 110.523 593.33 110.696 593.206 110.93C593.088 111.158 592.997 111.455 592.931 111.821C592.865 112.188 592.832 112.628 592.832 113.141C592.832 114.168 592.956 114.916 593.206 115.385C593.462 115.847 593.796 116.078 594.207 116.078ZM599.675 116.804C598.963 116.804 598.41 116.489 598.014 115.858C597.618 115.228 597.42 114.322 597.42 113.141C597.42 111.961 597.618 111.062 598.014 110.446C598.41 109.83 598.963 109.522 599.675 109.522C600.379 109.522 600.929 109.83 601.325 110.446C601.721 111.062 601.919 111.961 601.919 113.141C601.919 114.322 601.721 115.228 601.325 115.858C600.929 116.489 600.379 116.804 599.675 116.804ZM599.675 116.078C599.88 116.078 600.063 116.023 600.225 115.913C600.393 115.796 600.536 115.62 600.654 115.385C600.778 115.143 600.874 114.839 600.94 114.472C601.006 114.098 601.039 113.655 601.039 113.141C601.039 112.628 601.006 112.188 600.94 111.821C600.874 111.455 600.778 111.158 600.654 110.93C600.536 110.696 600.393 110.523 600.225 110.413C600.063 110.303 599.88 110.248 599.675 110.248C599.469 110.248 599.282 110.303 599.114 110.413C598.945 110.523 598.798 110.696 598.674 110.93C598.556 111.158 598.465 111.455 598.399 111.821C598.333 112.188 598.3 112.628 598.3 113.141C598.3 114.168 598.424 114.916 598.674 115.385C598.93 115.847 599.264 116.078 599.675 116.078Z" fill="#A2A3A5"/>
<path d="M588.739 169.14C588.028 169.14 587.474 168.825 587.078 168.194C586.682 167.564 586.484 166.658 586.484 165.477C586.484 164.297 586.682 163.398 587.078 162.782C587.474 162.166 588.028 161.858 588.739 161.858C589.443 161.858 589.993 162.166 590.389 162.782C590.785 163.398 590.983 164.297 590.983 165.477C590.983 166.658 590.785 167.564 590.389 168.194C589.993 168.825 589.443 169.14 588.739 169.14ZM588.739 168.414C588.944 168.414 589.128 168.359 589.289 168.249C589.458 168.132 589.601 167.956 589.718 167.721C589.843 167.479 589.938 167.175 590.004 166.808C590.07 166.434 590.103 165.991 590.103 165.477C590.103 164.964 590.07 164.524 590.004 164.157C589.938 163.791 589.843 163.494 589.718 163.266C589.601 163.032 589.458 162.859 589.289 162.749C589.128 162.639 588.944 162.584 588.739 162.584C588.534 162.584 588.347 162.639 588.178 162.749C588.009 162.859 587.863 163.032 587.738 163.266C587.621 163.494 587.529 163.791 587.463 164.157C587.397 164.524 587.364 164.964 587.364 165.477C587.364 166.504 587.489 167.252 587.738 167.721C587.995 168.183 588.328 168.414 588.739 168.414Z" fill="#A2A3A5"/>
<line x1="2" y1="8.5" x2="580" y2="8.5" stroke="#ECE9F1"/>
<line x1="2" y1="60.8333" x2="580" y2="60.8333" stroke="#ECE9F1"/>
<line x1="2" y1="113.167" x2="580" y2="113.167" stroke="#ECE9F1"/>
<line x1="2" y1="165.5" x2="580" y2="165.5" stroke="#ECE9F1"/>
<path d="M2 158C27.4227 153.494 48.3282 126.017 78.6622 121.398C94.8298 118.937 107.782 123.728 122.233 131.172C136.684 138.616 133.855 141.831 166.355 147.57C193.175 152.306 200.19 101.244 226.471 103.206C252.752 105.168 264.908 43.7761 292.655 48.9009C320.402 54.0256 325.945 40.7758 352.028 65.8871C378.11 90.9984 402.207 32.4656 434.948 27.3408C467.69 22.2161 476.217 76.6094 491.756 74.5595C507.294 72.5096 521.284 111.268 534.603 116.906C547.921 122.543 551.698 102.065 580 102.065" stroke="url(#paint0_linear)" stroke-width="4" stroke-linecap="round" stroke-linejoin="round"/>
<path d="M78.6622 121.988C48.3282 126.635 27.4227 154.284 2 158.818V170.002H580V102.534C551.698 102.534 547.921 123.14 534.603 117.467C521.284 111.795 507.294 72.7938 491.756 74.8566C476.217 76.9193 467.69 22.1862 434.948 27.343C402.207 32.4997 378.11 91.3982 352.028 66.13C325.946 40.8618 320.402 54.1945 292.655 49.0377C264.908 43.8809 252.752 105.656 226.471 103.682C200.19 101.708 193.175 153.089 166.355 148.323C133.855 142.548 136.684 139.314 122.233 131.823C107.782 124.332 94.8298 119.511 78.6622 121.988Z" fill="url(#paint1_linear)"/>
<path d="M4.332 186.132C3.43 186.132 2.76633 185.747 2.341 184.977L3.001 184.515C3.16233 184.801 3.34567 185.01 3.551 185.142C3.75633 185.267 3.98733 185.329 4.244 185.329C4.63267 185.329 4.92233 185.212 5.113 184.977C5.30367 184.735 5.399 184.339 5.399 183.789V178.784H6.323V183.877C6.323 184.185 6.28267 184.478 6.202 184.757C6.12867 185.028 6.01133 185.267 5.85 185.472C5.696 185.677 5.49067 185.839 5.234 185.956C4.98467 186.073 4.684 186.132 4.332 186.132ZM9.74916 186.132C9.17716 186.132 8.75916 185.956 8.49516 185.604C8.23849 185.252 8.11016 184.731 8.11016 184.042V180.654H9.02316V183.921C9.02316 184.427 9.10016 184.794 9.25416 185.021C9.41549 185.241 9.67216 185.351 10.0242 185.351C10.3028 185.351 10.5485 185.281 10.7612 185.142C10.9738 184.995 11.2085 184.764 11.4652 184.449V180.654H12.3672V186H11.6192L11.5422 185.164H11.5092C11.2598 185.457 10.9958 185.692 10.7172 185.868C10.4458 186.044 10.1232 186.132 9.74916 186.132ZM14.1706 186V180.654H14.9186L14.9956 181.424H15.0286C15.2852 181.167 15.5529 180.955 15.8316 180.786C16.1176 180.61 16.4476 180.522 16.8216 180.522C17.3862 180.522 17.7969 180.698 18.0536 181.05C18.3176 181.402 18.4496 181.923 18.4496 182.612V186H17.5476V182.733C17.5476 182.227 17.4669 181.864 17.3056 181.644C17.1442 181.417 16.8876 181.303 16.5356 181.303C16.2569 181.303 16.0112 181.373 15.7986 181.512C15.5859 181.651 15.3439 181.857 15.0726 182.128V186H14.1706ZM22.4323 181.259L22.1793 180.841C22.458 180.658 22.6633 180.463 22.7953 180.258C22.9347 180.045 23.0043 179.781 23.0043 179.466C22.9823 179.473 22.953 179.477 22.9163 179.477C22.7623 179.477 22.6267 179.429 22.5093 179.334C22.392 179.239 22.3333 179.103 22.3333 178.927C22.3333 178.736 22.3883 178.586 22.4983 178.476C22.6083 178.366 22.7477 178.311 22.9163 178.311C23.129 178.311 23.2977 178.399 23.4223 178.575C23.547 178.744 23.6093 178.989 23.6093 179.312C23.6093 179.752 23.5067 180.133 23.3013 180.456C23.1033 180.771 22.8137 181.039 22.4323 181.259ZM24.6656 186V185.461C25.1936 184.933 25.6629 184.456 26.0736 184.031C26.4843 183.606 26.8289 183.213 27.1076 182.854C27.3863 182.487 27.5989 182.154 27.7456 181.853C27.8923 181.545 27.9656 181.248 27.9656 180.962C27.9656 180.559 27.8556 180.229 27.6356 179.972C27.4156 179.715 27.0819 179.587 26.6346 179.587C26.3413 179.587 26.0699 179.671 25.8206 179.84C25.5713 180.001 25.3439 180.199 25.1386 180.434L24.6216 179.917C24.9149 179.594 25.2266 179.338 25.5566 179.147C25.8866 178.949 26.2826 178.85 26.7446 178.85C27.3973 178.85 27.9106 179.041 28.2846 179.422C28.6586 179.796 28.8456 180.295 28.8456 180.918C28.8456 181.248 28.7723 181.582 28.6256 181.919C28.4863 182.249 28.2883 182.594 28.0316 182.953C27.7823 183.305 27.4816 183.675 27.1296 184.064C26.7849 184.445 26.4036 184.852 25.9856 185.285C26.1763 185.27 26.3743 185.256 26.5796 185.241C26.7849 185.226 26.9793 185.219 27.1626 185.219H29.1976V186H24.6656ZM32.4324 186.132C31.721 186.132 31.1674 185.817 30.7714 185.186C30.3754 184.555 30.1774 183.65 30.1774 182.469C30.1774 181.288 30.3754 180.39 30.7714 179.774C31.1674 179.158 31.721 178.85 32.4324 178.85C33.1364 178.85 33.6864 179.158 34.0824 179.774C34.4784 180.39 34.6764 181.288 34.6764 182.469C34.6764 183.65 34.4784 184.555 34.0824 185.186C33.6864 185.817 33.1364 186.132 32.4324 186.132ZM32.4324 185.406C32.6377 185.406 32.821 185.351 32.9824 185.241C33.151 185.124 33.294 184.948 33.4114 184.713C33.536 184.471 33.6314 184.167 33.6974 183.8C33.7634 183.426 33.7964 182.982 33.7964 182.469C33.7964 181.956 33.7634 181.516 33.6974 181.149C33.6314 180.782 33.536 180.485 33.4114 180.258C33.294 180.023 33.151 179.851 32.9824 179.741C32.821 179.631 32.6377 179.576 32.4324 179.576C32.227 179.576 32.04 179.631 31.8714 179.741C31.7027 179.851 31.556 180.023 31.4314 180.258C31.314 180.485 31.2224 180.782 31.1564 181.149C31.0904 181.516 31.0574 181.956 31.0574 182.469C31.0574 183.496 31.182 184.244 31.4314 184.713C31.688 185.175 32.0217 185.406 32.4324 185.406Z" fill="#A2A3A5"/>
<path d="M95.8076 186.132C94.9056 186.132 94.2419 185.747 93.8166 184.977L94.4766 184.515C94.6379 184.801 94.8213 185.01 95.0266 185.142C95.2319 185.267 95.4629 185.329 95.7196 185.329C96.1083 185.329 96.3979 185.212 96.5886 184.977C96.7793 184.735 96.8746 184.339 96.8746 183.789V178.784H97.7986V183.877C97.7986 184.185 97.7583 184.478 97.6776 184.757C97.6043 185.028 97.4869 185.267 97.3256 185.472C97.1716 185.677 96.9663 185.839 96.7096 185.956C96.4603 186.073 96.1596 186.132 95.8076 186.132ZM101.225 186.132C100.653 186.132 100.235 185.956 99.9707 185.604C99.7141 185.252 99.5857 184.731 99.5857 184.042V180.654H100.499V183.921C100.499 184.427 100.576 184.794 100.73 185.021C100.891 185.241 101.148 185.351 101.5 185.351C101.778 185.351 102.024 185.281 102.237 185.142C102.449 184.995 102.684 184.764 102.941 184.449V180.654H103.843V186H103.095L103.018 185.164H102.985C102.735 185.457 102.471 185.692 102.193 185.868C101.921 186.044 101.599 186.132 101.225 186.132ZM106.603 186.132C106.258 186.132 106.013 186.029 105.866 185.824C105.719 185.619 105.646 185.318 105.646 184.922V178.168H106.548V184.988C106.548 185.135 106.574 185.237 106.625 185.296C106.676 185.355 106.735 185.384 106.801 185.384C106.83 185.384 106.856 185.384 106.878 185.384C106.907 185.384 106.948 185.377 106.999 185.362L107.12 186.044C107.061 186.073 106.992 186.095 106.911 186.11C106.83 186.125 106.728 186.132 106.603 186.132ZM110.696 181.259L110.443 180.841C110.722 180.658 110.927 180.463 111.059 180.258C111.198 180.045 111.268 179.781 111.268 179.466C111.246 179.473 111.217 179.477 111.18 179.477C111.026 179.477 110.89 179.429 110.773 179.334C110.656 179.239 110.597 179.103 110.597 178.927C110.597 178.736 110.652 178.586 110.762 178.476C110.872 178.366 111.011 178.311 111.18 178.311C111.393 178.311 111.561 178.399 111.686 178.575C111.811 178.744 111.873 178.989 111.873 179.312C111.873 179.752 111.77 180.133 111.565 180.456C111.367 180.771 111.077 181.039 110.696 181.259ZM112.929 186V185.461C113.457 184.933 113.927 184.456 114.337 184.031C114.748 183.606 115.093 183.213 115.371 182.854C115.65 182.487 115.863 182.154 116.009 181.853C116.156 181.545 116.229 181.248 116.229 180.962C116.229 180.559 116.119 180.229 115.899 179.972C115.679 179.715 115.346 179.587 114.898 179.587C114.605 179.587 114.334 179.671 114.084 179.84C113.835 180.001 113.608 180.199 113.402 180.434L112.885 179.917C113.179 179.594 113.49 179.338 113.82 179.147C114.15 178.949 114.546 178.85 115.008 178.85C115.661 178.85 116.174 179.041 116.548 179.422C116.922 179.796 117.109 180.295 117.109 180.918C117.109 181.248 117.036 181.582 116.889 181.919C116.75 182.249 116.552 182.594 116.295 182.953C116.046 183.305 115.745 183.675 115.393 184.064C115.049 184.445 114.667 184.852 114.249 185.285C114.44 185.27 114.638 185.256 114.843 185.241C115.049 185.226 115.243 185.219 115.426 185.219H117.461V186H112.929ZM120.696 186.132C119.985 186.132 119.431 185.817 119.035 185.186C118.639 184.555 118.441 183.65 118.441 182.469C118.441 181.288 118.639 180.39 119.035 179.774C119.431 179.158 119.985 178.85 120.696 178.85C121.4 178.85 121.95 179.158 122.346 179.774C122.742 180.39 122.94 181.288 122.94 182.469C122.94 183.65 122.742 184.555 122.346 185.186C121.95 185.817 121.4 186.132 120.696 186.132ZM120.696 185.406C120.901 185.406 121.085 185.351 121.246 185.241C121.415 185.124 121.558 184.948 121.675 184.713C121.8 184.471 121.895 184.167 121.961 183.8C122.027 183.426 122.06 182.982 122.06 182.469C122.06 181.956 122.027 181.516 121.961 181.149C121.895 180.782 121.8 180.485 121.675 180.258C121.558 180.023 121.415 179.851 121.246 179.741C121.085 179.631 120.901 179.576 120.696 179.576C120.491 179.576 120.304 179.631 120.135 179.741C119.966 179.851 119.82 180.023 119.695 180.258C119.578 180.485 119.486 180.782 119.42 181.149C119.354 181.516 119.321 181.956 119.321 182.469C119.321 183.496 119.446 184.244 119.695 184.713C119.952 185.175 120.285 185.406 120.696 185.406Z" fill="#A2A3A5"/>
<path d="M183.184 181.963L182.843 183.063H185.01L184.669 181.963C184.537 181.56 184.412 181.16 184.295 180.764C184.177 180.361 184.06 179.95 183.943 179.532H183.899C183.789 179.95 183.675 180.361 183.558 180.764C183.44 181.16 183.316 181.56 183.184 181.963ZM180.984 186L183.426 178.784H184.46L186.902 186H185.923L185.241 183.8H182.612L181.919 186H180.984ZM189.334 186.132C188.762 186.132 188.344 185.956 188.08 185.604C187.823 185.252 187.695 184.731 187.695 184.042V180.654H188.608V183.921C188.608 184.427 188.685 184.794 188.839 185.021C189 185.241 189.257 185.351 189.609 185.351C189.887 185.351 190.133 185.281 190.346 185.142C190.558 184.995 190.793 184.764 191.05 184.449V180.654H191.952V186H191.204L191.127 185.164H191.094C190.844 185.457 190.58 185.692 190.302 185.868C190.03 186.044 189.708 186.132 189.334 186.132ZM195.559 188.464C195.229 188.464 194.928 188.431 194.657 188.365C194.386 188.306 194.151 188.215 193.953 188.09C193.762 187.965 193.612 187.815 193.502 187.639C193.399 187.463 193.348 187.258 193.348 187.023C193.348 186.796 193.418 186.579 193.557 186.374C193.696 186.169 193.887 185.982 194.129 185.813V185.769C193.997 185.688 193.883 185.578 193.788 185.439C193.7 185.292 193.656 185.113 193.656 184.9C193.656 184.673 193.718 184.475 193.843 184.306C193.968 184.137 194.1 184.005 194.239 183.91V183.866C194.063 183.719 193.902 183.525 193.755 183.283C193.616 183.034 193.546 182.748 193.546 182.425C193.546 182.132 193.597 181.868 193.7 181.633C193.81 181.398 193.957 181.2 194.14 181.039C194.323 180.87 194.536 180.742 194.778 180.654C195.027 180.566 195.288 180.522 195.559 180.522C195.706 180.522 195.841 180.537 195.966 180.566C196.098 180.588 196.215 180.617 196.318 180.654H198.177V181.347H197.077C197.202 181.472 197.304 181.629 197.385 181.82C197.473 182.011 197.517 182.22 197.517 182.447C197.517 182.733 197.466 182.993 197.363 183.228C197.26 183.455 197.121 183.65 196.945 183.811C196.769 183.965 196.56 184.086 196.318 184.174C196.083 184.262 195.83 184.306 195.559 184.306C195.427 184.306 195.291 184.291 195.152 184.262C195.013 184.225 194.881 184.178 194.756 184.119C194.661 184.2 194.58 184.291 194.514 184.394C194.448 184.489 194.415 184.61 194.415 184.757C194.415 184.926 194.481 185.065 194.613 185.175C194.745 185.285 194.994 185.34 195.361 185.34H196.395C197.018 185.34 197.484 185.443 197.792 185.648C198.107 185.846 198.265 186.169 198.265 186.616C198.265 186.865 198.203 187.1 198.078 187.32C197.953 187.547 197.774 187.745 197.539 187.914C197.304 188.083 197.018 188.215 196.681 188.31C196.351 188.413 195.977 188.464 195.559 188.464ZM195.559 183.701C195.713 183.701 195.856 183.672 195.988 183.613C196.127 183.554 196.248 183.47 196.351 183.36C196.461 183.25 196.545 183.118 196.604 182.964C196.663 182.803 196.692 182.623 196.692 182.425C196.692 182.029 196.582 181.725 196.362 181.512C196.142 181.292 195.874 181.182 195.559 181.182C195.244 181.182 194.976 181.292 194.756 181.512C194.536 181.725 194.426 182.029 194.426 182.425C194.426 182.623 194.455 182.803 194.514 182.964C194.573 183.118 194.653 183.25 194.756 183.36C194.866 183.47 194.987 183.554 195.119 183.613C195.258 183.672 195.405 183.701 195.559 183.701ZM195.691 187.837C195.948 187.837 196.179 187.804 196.384 187.738C196.597 187.679 196.776 187.599 196.923 187.496C197.07 187.401 197.183 187.287 197.264 187.155C197.345 187.023 197.385 186.887 197.385 186.748C197.385 186.499 197.293 186.326 197.11 186.231C196.927 186.136 196.659 186.088 196.307 186.088H195.383C195.28 186.088 195.167 186.081 195.042 186.066C194.925 186.059 194.807 186.037 194.69 186C194.499 186.139 194.36 186.286 194.272 186.44C194.184 186.594 194.14 186.748 194.14 186.902C194.14 187.188 194.276 187.415 194.547 187.584C194.826 187.753 195.207 187.837 195.691 187.837ZM201.544 181.259L201.291 180.841C201.57 180.658 201.775 180.463 201.907 180.258C202.046 180.045 202.116 179.781 202.116 179.466C202.094 179.473 202.065 179.477 202.028 179.477C201.874 179.477 201.738 179.429 201.621 179.334C201.504 179.239 201.445 179.103 201.445 178.927C201.445 178.736 201.5 178.586 201.61 178.476C201.72 178.366 201.859 178.311 202.028 178.311C202.241 178.311 202.409 178.399 202.534 178.575C202.659 178.744 202.721 178.989 202.721 179.312C202.721 179.752 202.618 180.133 202.413 180.456C202.215 180.771 201.925 181.039 201.544 181.259ZM203.777 186V185.461C204.305 184.933 204.775 184.456 205.185 184.031C205.596 183.606 205.941 183.213 206.219 182.854C206.498 182.487 206.711 182.154 206.857 181.853C207.004 181.545 207.077 181.248 207.077 180.962C207.077 180.559 206.967 180.229 206.747 179.972C206.527 179.715 206.194 179.587 205.746 179.587C205.453 179.587 205.182 179.671 204.932 179.84C204.683 180.001 204.456 180.199 204.25 180.434L203.733 179.917C204.027 179.594 204.338 179.338 204.668 179.147C204.998 178.949 205.394 178.85 205.856 178.85C206.509 178.85 207.022 179.041 207.396 179.422C207.77 179.796 207.957 180.295 207.957 180.918C207.957 181.248 207.884 181.582 207.737 181.919C207.598 182.249 207.4 182.594 207.143 182.953C206.894 183.305 206.593 183.675 206.241 184.064C205.897 184.445 205.515 184.852 205.097 185.285C205.288 185.27 205.486 185.256 205.691 185.241C205.897 185.226 206.091 185.219 206.274 185.219H208.309V186H203.777ZM211.544 186.132C210.833 186.132 210.279 185.817 209.883 185.186C209.487 184.555 209.289 183.65 209.289 182.469C209.289 181.288 209.487 180.39 209.883 179.774C210.279 179.158 210.833 178.85 211.544 178.85C212.248 178.85 212.798 179.158 213.194 179.774C213.59 180.39 213.788 181.288 213.788 182.469C213.788 183.65 213.59 184.555 213.194 185.186C212.798 185.817 212.248 186.132 211.544 186.132ZM211.544 185.406C211.75 185.406 211.933 185.351 212.094 185.241C212.263 185.124 212.406 184.948 212.523 184.713C212.648 184.471 212.743 184.167 212.809 183.8C212.875 183.426 212.908 182.982 212.908 182.469C212.908 181.956 212.875 181.516 212.809 181.149C212.743 180.782 212.648 180.485 212.523 180.258C212.406 180.023 212.263 179.851 212.094 179.741C211.933 179.631 211.75 179.576 211.544 179.576C211.339 179.576 211.152 179.631 210.983 179.741C210.815 179.851 210.668 180.023 210.543 180.258C210.426 180.485 210.334 180.782 210.268 181.149C210.202 181.516 210.169 181.956 210.169 182.469C210.169 183.496 210.294 184.244 210.543 184.713C210.8 185.175 211.134 185.406 211.544 185.406Z" fill="#A2A3A5"/>
<path d="M275.418 186.132C274.912 186.132 274.442 186.037 274.01 185.846C273.577 185.655 273.203 185.395 272.888 185.065L273.438 184.427C273.694 184.698 273.995 184.918 274.34 185.087C274.692 185.248 275.055 185.329 275.429 185.329C275.905 185.329 276.276 185.223 276.54 185.01C276.804 184.79 276.936 184.504 276.936 184.152C276.936 183.969 276.903 183.815 276.837 183.69C276.778 183.558 276.694 183.448 276.584 183.36C276.481 183.265 276.356 183.18 276.21 183.107C276.063 183.034 275.905 182.957 275.737 182.876L274.703 182.425C274.534 182.352 274.362 182.264 274.186 182.161C274.01 182.058 273.852 181.934 273.713 181.787C273.573 181.64 273.46 181.468 273.372 181.27C273.284 181.065 273.24 180.83 273.24 180.566C273.24 180.295 273.295 180.042 273.405 179.807C273.522 179.572 273.68 179.371 273.878 179.202C274.083 179.026 274.321 178.89 274.593 178.795C274.871 178.7 275.176 178.652 275.506 178.652C275.938 178.652 276.338 178.736 276.705 178.905C277.071 179.066 277.383 179.279 277.64 179.543L277.145 180.137C276.925 179.924 276.679 179.759 276.408 179.642C276.144 179.517 275.843 179.455 275.506 179.455C275.102 179.455 274.776 179.55 274.527 179.741C274.285 179.924 274.164 180.181 274.164 180.511C274.164 180.687 274.197 180.837 274.263 180.962C274.336 181.079 274.431 181.186 274.549 181.281C274.666 181.369 274.794 181.45 274.934 181.523C275.073 181.589 275.216 181.651 275.363 181.71L276.386 182.15C276.591 182.238 276.785 182.341 276.969 182.458C277.152 182.568 277.31 182.7 277.442 182.854C277.574 183.001 277.676 183.177 277.75 183.382C277.83 183.58 277.871 183.811 277.871 184.075C277.871 184.361 277.812 184.629 277.695 184.878C277.585 185.127 277.423 185.347 277.211 185.538C276.998 185.721 276.741 185.868 276.441 185.978C276.14 186.081 275.799 186.132 275.418 186.132ZM281.371 186.132C281.011 186.132 280.674 186.07 280.359 185.945C280.051 185.813 279.779 185.63 279.545 185.395C279.317 185.153 279.138 184.86 279.006 184.515C278.874 184.17 278.808 183.778 278.808 183.338C278.808 182.898 278.874 182.506 279.006 182.161C279.145 181.809 279.325 181.512 279.545 181.27C279.772 181.028 280.029 180.845 280.315 180.72C280.601 180.588 280.898 180.522 281.206 180.522C281.543 180.522 281.844 180.581 282.108 180.698C282.379 180.815 282.603 180.984 282.779 181.204C282.962 181.424 283.101 181.688 283.197 181.996C283.292 182.304 283.34 182.649 283.34 183.03C283.34 183.125 283.336 183.221 283.329 183.316C283.329 183.404 283.321 183.481 283.307 183.547H279.699C279.735 184.119 279.911 184.574 280.227 184.911C280.549 185.241 280.967 185.406 281.481 185.406C281.737 185.406 281.972 185.369 282.185 185.296C282.405 185.215 282.614 185.113 282.812 184.988L283.131 185.582C282.896 185.729 282.636 185.857 282.35 185.967C282.064 186.077 281.737 186.132 281.371 186.132ZM279.688 182.898H282.548C282.548 182.355 282.43 181.945 282.196 181.666C281.968 181.38 281.646 181.237 281.228 181.237C281.037 181.237 280.854 181.274 280.678 181.347C280.509 181.42 280.355 181.53 280.216 181.677C280.076 181.816 279.959 181.989 279.864 182.194C279.776 182.399 279.717 182.634 279.688 182.898ZM284.661 188.255V180.654H285.409L285.486 181.27H285.519C285.761 181.065 286.025 180.889 286.311 180.742C286.604 180.595 286.908 180.522 287.224 180.522C287.568 180.522 287.873 180.588 288.137 180.72C288.401 180.845 288.621 181.028 288.797 181.27C288.973 181.505 289.105 181.791 289.193 182.128C289.288 182.458 289.336 182.832 289.336 183.25C289.336 183.705 289.273 184.112 289.149 184.471C289.024 184.823 288.855 185.124 288.643 185.373C288.43 185.622 288.184 185.813 287.906 185.945C287.627 186.07 287.334 186.132 287.026 186.132C286.776 186.132 286.527 186.077 286.278 185.967C286.036 185.857 285.79 185.707 285.541 185.516L285.563 186.451V188.255H284.661ZM286.872 185.373C287.092 185.373 287.293 185.325 287.477 185.23C287.667 185.127 287.829 184.988 287.961 184.812C288.1 184.629 288.206 184.405 288.28 184.141C288.36 183.877 288.401 183.58 288.401 183.25C288.401 182.957 288.375 182.689 288.324 182.447C288.272 182.205 288.188 182 288.071 181.831C287.961 181.655 287.814 181.519 287.631 181.424C287.455 181.329 287.242 181.281 286.993 181.281C286.765 181.281 286.534 181.343 286.3 181.468C286.072 181.593 285.827 181.772 285.563 182.007V184.812C285.805 185.017 286.039 185.164 286.267 185.252C286.494 185.333 286.696 185.373 286.872 185.373ZM293.009 181.259L292.756 180.841C293.034 180.658 293.24 180.463 293.372 180.258C293.511 180.045 293.581 179.781 293.581 179.466C293.559 179.473 293.529 179.477 293.493 179.477C293.339 179.477 293.203 179.429 293.086 179.334C292.968 179.239 292.91 179.103 292.91 178.927C292.91 178.736 292.965 178.586 293.075 178.476C293.185 178.366 293.324 178.311 293.493 178.311C293.705 178.311 293.874 178.399 293.999 178.575C294.123 178.744 294.186 178.989 294.186 179.312C294.186 179.752 294.083 180.133 293.878 180.456C293.68 180.771 293.39 181.039 293.009 181.259ZM295.242 186V185.461C295.77 184.933 296.239 184.456 296.65 184.031C297.06 183.606 297.405 183.213 297.684 182.854C297.962 182.487 298.175 182.154 298.322 181.853C298.468 181.545 298.542 181.248 298.542 180.962C298.542 180.559 298.432 180.229 298.212 179.972C297.992 179.715 297.658 179.587 297.211 179.587C296.917 179.587 296.646 179.671 296.397 179.84C296.147 180.001 295.92 180.199 295.715 180.434L295.198 179.917C295.491 179.594 295.803 179.338 296.133 179.147C296.463 178.949 296.859 178.85 297.321 178.85C297.973 178.85 298.487 179.041 298.861 179.422C299.235 179.796 299.422 180.295 299.422 180.918C299.422 181.248 299.348 181.582 299.202 181.919C299.062 182.249 298.864 182.594 298.608 182.953C298.358 183.305 298.058 183.675 297.706 184.064C297.361 184.445 296.98 184.852 296.562 185.285C296.752 185.27 296.95 185.256 297.156 185.241C297.361 185.226 297.555 185.219 297.739 185.219H299.774V186H295.242ZM303.009 186.132C302.297 186.132 301.744 185.817 301.348 185.186C300.952 184.555 300.754 183.65 300.754 182.469C300.754 181.288 300.952 180.39 301.348 179.774C301.744 179.158 302.297 178.85 303.009 178.85C303.713 178.85 304.263 179.158 304.659 179.774C305.055 180.39 305.253 181.288 305.253 182.469C305.253 183.65 305.055 184.555 304.659 185.186C304.263 185.817 303.713 186.132 303.009 186.132ZM303.009 185.406C303.214 185.406 303.397 185.351 303.559 185.241C303.727 185.124 303.87 184.948 303.988 184.713C304.112 184.471 304.208 184.167 304.274 183.8C304.34 183.426 304.373 182.982 304.373 182.469C304.373 181.956 304.34 181.516 304.274 181.149C304.208 180.782 304.112 180.485 303.988 180.258C303.87 180.023 303.727 179.851 303.559 179.741C303.397 179.631 303.214 179.576 303.009 179.576C302.803 179.576 302.616 179.631 302.448 179.741C302.279 179.851 302.132 180.023 302.008 180.258C301.89 180.485 301.799 180.782 301.733 181.149C301.667 181.516 301.634 181.956 301.634 182.469C301.634 183.496 301.758 184.244 302.008 184.713C302.264 185.175 302.598 185.406 303.009 185.406Z" fill="#A2A3A5"/>
<path d="M367.553 186.132C367.099 186.132 366.681 186.044 366.299 185.868C365.925 185.692 365.603 185.443 365.331 185.12C365.06 184.79 364.847 184.394 364.693 183.932C364.547 183.463 364.473 182.938 364.473 182.359C364.473 181.78 364.547 181.263 364.693 180.808C364.847 180.346 365.06 179.957 365.331 179.642C365.603 179.319 365.925 179.074 366.299 178.905C366.681 178.736 367.099 178.652 367.553 178.652C368.008 178.652 368.422 178.74 368.796 178.916C369.178 179.085 369.504 179.33 369.775 179.653C370.054 179.968 370.267 180.357 370.413 180.819C370.567 181.274 370.644 181.787 370.644 182.359C370.644 182.938 370.567 183.463 370.413 183.932C370.267 184.394 370.054 184.79 369.775 185.12C369.504 185.443 369.178 185.692 368.796 185.868C368.422 186.044 368.008 186.132 367.553 186.132ZM367.553 185.329C367.876 185.329 368.166 185.259 368.422 185.12C368.686 184.981 368.91 184.783 369.093 184.526C369.284 184.262 369.431 183.95 369.533 183.591C369.636 183.224 369.687 182.814 369.687 182.359C369.687 181.912 369.636 181.508 369.533 181.149C369.431 180.79 369.284 180.485 369.093 180.236C368.91 179.987 368.686 179.796 368.422 179.664C368.166 179.525 367.876 179.455 367.553 179.455C367.231 179.455 366.937 179.525 366.673 179.664C366.417 179.796 366.193 179.987 366.002 180.236C365.819 180.485 365.676 180.79 365.573 181.149C365.471 181.508 365.419 181.912 365.419 182.359C365.419 182.814 365.471 183.224 365.573 183.591C365.676 183.95 365.819 184.262 366.002 184.526C366.193 184.783 366.417 184.981 366.673 185.12C366.937 185.259 367.231 185.329 367.553 185.329ZM374.22 186.132C373.868 186.132 373.538 186.07 373.23 185.945C372.922 185.82 372.654 185.641 372.427 185.406C372.207 185.164 372.031 184.871 371.899 184.526C371.774 184.174 371.712 183.778 371.712 183.338C371.712 182.891 371.782 182.495 371.921 182.15C372.06 181.798 372.247 181.501 372.482 181.259C372.717 181.017 372.988 180.834 373.296 180.709C373.611 180.584 373.941 180.522 374.286 180.522C374.638 180.522 374.939 180.584 375.188 180.709C375.437 180.834 375.657 180.98 375.848 181.149L375.386 181.743C375.232 181.604 375.067 181.49 374.891 181.402C374.722 181.314 374.532 181.27 374.319 181.27C374.077 181.27 373.853 181.321 373.648 181.424C373.443 181.519 373.267 181.659 373.12 181.842C372.973 182.025 372.856 182.245 372.768 182.502C372.687 182.751 372.647 183.03 372.647 183.338C372.647 183.646 372.687 183.925 372.768 184.174C372.849 184.423 372.959 184.64 373.098 184.823C373.245 184.999 373.421 185.138 373.626 185.241C373.831 185.336 374.055 185.384 374.297 185.384C374.546 185.384 374.774 185.333 374.979 185.23C375.192 185.12 375.382 184.992 375.551 184.845L375.947 185.45C375.705 185.663 375.437 185.831 375.144 185.956C374.851 186.073 374.543 186.132 374.22 186.132ZM378.7 186.132C378.414 186.132 378.172 186.088 377.974 186C377.784 185.912 377.626 185.791 377.501 185.637C377.384 185.483 377.3 185.296 377.248 185.076C377.197 184.856 377.171 184.614 377.171 184.35V181.391H376.379V180.709L377.215 180.654L377.325 179.158H378.084V180.654H379.525V181.391H378.084V184.361C378.084 184.691 378.143 184.948 378.26 185.131C378.385 185.307 378.601 185.395 378.909 185.395C379.005 185.395 379.107 185.38 379.217 185.351C379.327 185.322 379.426 185.289 379.514 185.252L379.69 185.934C379.544 185.985 379.382 186.029 379.206 186.066C379.038 186.11 378.869 186.132 378.7 186.132ZM382.98 181.259L382.727 180.841C383.006 180.658 383.211 180.463 383.343 180.258C383.483 180.045 383.552 179.781 383.552 179.466C383.53 179.473 383.501 179.477 383.464 179.477C383.31 179.477 383.175 179.429 383.057 179.334C382.94 179.239 382.881 179.103 382.881 178.927C382.881 178.736 382.936 178.586 383.046 178.476C383.156 178.366 383.296 178.311 383.464 178.311C383.677 178.311 383.846 178.399 383.97 178.575C384.095 178.744 384.157 178.989 384.157 179.312C384.157 179.752 384.055 180.133 383.849 180.456C383.651 180.771 383.362 181.039 382.98 181.259ZM385.213 186V185.461C385.741 184.933 386.211 184.456 386.621 184.031C387.032 183.606 387.377 183.213 387.655 182.854C387.934 182.487 388.147 182.154 388.293 181.853C388.44 181.545 388.513 181.248 388.513 180.962C388.513 180.559 388.403 180.229 388.183 179.972C387.963 179.715 387.63 179.587 387.182 179.587C386.889 179.587 386.618 179.671 386.368 179.84C386.119 180.001 385.892 180.199 385.686 180.434L385.169 179.917C385.463 179.594 385.774 179.338 386.104 179.147C386.434 178.949 386.83 178.85 387.292 178.85C387.945 178.85 388.458 179.041 388.832 179.422C389.206 179.796 389.393 180.295 389.393 180.918C389.393 181.248 389.32 181.582 389.173 181.919C389.034 182.249 388.836 182.594 388.579 182.953C388.33 183.305 388.029 183.675 387.677 184.064C387.333 184.445 386.951 184.852 386.533 185.285C386.724 185.27 386.922 185.256 387.127 185.241C387.333 185.226 387.527 185.219 387.71 185.219H389.745V186H385.213ZM392.98 186.132C392.269 186.132 391.715 185.817 391.319 185.186C390.923 184.555 390.725 183.65 390.725 182.469C390.725 181.288 390.923 180.39 391.319 179.774C391.715 179.158 392.269 178.85 392.98 178.85C393.684 178.85 394.234 179.158 394.63 179.774C395.026 180.39 395.224 181.288 395.224 182.469C395.224 183.65 395.026 184.555 394.63 185.186C394.234 185.817 393.684 186.132 392.98 186.132ZM392.98 185.406C393.186 185.406 393.369 185.351 393.53 185.241C393.699 185.124 393.842 184.948 393.959 184.713C394.084 184.471 394.179 184.167 394.245 183.8C394.311 183.426 394.344 182.982 394.344 182.469C394.344 181.956 394.311 181.516 394.245 181.149C394.179 180.782 394.084 180.485 393.959 180.258C393.842 180.023 393.699 179.851 393.53 179.741C393.369 179.631 393.186 179.576 392.98 179.576C392.775 179.576 392.588 179.631 392.419 179.741C392.251 179.851 392.104 180.023 391.979 180.258C391.862 180.485 391.77 180.782 391.704 181.149C391.638 181.516 391.605 181.956 391.605 182.469C391.605 183.496 391.73 184.244 391.979 184.713C392.236 185.175 392.57 185.406 392.98 185.406Z" fill="#A2A3A5"/>
<path d="M454.367 186V178.784H455.313L457.92 183.316L458.701 184.812H458.745C458.723 184.445 458.697 184.068 458.668 183.679C458.646 183.283 458.635 182.894 458.635 182.513V178.784H459.504V186H458.558L455.94 181.457L455.159 179.972H455.115C455.144 180.339 455.17 180.713 455.192 181.094C455.221 181.468 455.236 181.846 455.236 182.227V186H454.367ZM463.48 186.132C463.15 186.132 462.835 186.07 462.534 185.945C462.241 185.82 461.98 185.641 461.753 185.406C461.526 185.164 461.342 184.871 461.203 184.526C461.071 184.174 461.005 183.778 461.005 183.338C461.005 182.891 461.071 182.495 461.203 182.15C461.342 181.798 461.526 181.501 461.753 181.259C461.98 181.017 462.241 180.834 462.534 180.709C462.835 180.584 463.15 180.522 463.48 180.522C463.81 180.522 464.122 180.584 464.415 180.709C464.716 180.834 464.98 181.017 465.207 181.259C465.434 181.501 465.614 181.798 465.746 182.15C465.885 182.495 465.955 182.891 465.955 183.338C465.955 183.778 465.885 184.174 465.746 184.526C465.614 184.871 465.434 185.164 465.207 185.406C464.98 185.641 464.716 185.82 464.415 185.945C464.122 186.07 463.81 186.132 463.48 186.132ZM463.48 185.384C463.707 185.384 463.916 185.336 464.107 185.241C464.298 185.138 464.459 184.999 464.591 184.823C464.73 184.64 464.837 184.423 464.91 184.174C464.983 183.925 465.02 183.646 465.02 183.338C465.02 183.03 464.983 182.751 464.91 182.502C464.837 182.245 464.73 182.025 464.591 181.842C464.459 181.659 464.298 181.519 464.107 181.424C463.916 181.321 463.707 181.27 463.48 181.27C463.253 181.27 463.044 181.321 462.853 181.424C462.662 181.519 462.497 181.659 462.358 181.842C462.226 182.025 462.123 182.245 462.05 182.502C461.977 182.751 461.94 183.03 461.94 183.338C461.94 183.646 461.977 183.925 462.05 184.174C462.123 184.423 462.226 184.64 462.358 184.823C462.497 184.999 462.662 185.138 462.853 185.241C463.044 185.336 463.253 185.384 463.48 185.384ZM468.475 186L466.55 180.654H467.485L468.497 183.69C468.578 183.954 468.658 184.218 468.739 184.482C468.827 184.746 468.911 185.006 468.992 185.263H469.036C469.117 185.006 469.197 184.746 469.278 184.482C469.359 184.218 469.439 183.954 469.52 183.69L470.532 180.654H471.423L469.531 186H468.475ZM474.701 181.259L474.448 180.841C474.727 180.658 474.932 180.463 475.064 180.258C475.203 180.045 475.273 179.781 475.273 179.466C475.251 179.473 475.222 179.477 475.185 179.477C475.031 179.477 474.895 179.429 474.778 179.334C474.661 179.239 474.602 179.103 474.602 178.927C474.602 178.736 474.657 178.586 474.767 178.476C474.877 178.366 475.016 178.311 475.185 178.311C475.398 178.311 475.566 178.399 475.691 178.575C475.816 178.744 475.878 178.989 475.878 179.312C475.878 179.752 475.775 180.133 475.57 180.456C475.372 180.771 475.082 181.039 474.701 181.259ZM476.934 186V185.461C477.462 184.933 477.931 184.456 478.342 184.031C478.753 183.606 479.097 183.213 479.376 182.854C479.655 182.487 479.867 182.154 480.014 181.853C480.161 181.545 480.234 181.248 480.234 180.962C480.234 180.559 480.124 180.229 479.904 179.972C479.684 179.715 479.35 179.587 478.903 179.587C478.61 179.587 478.338 179.671 478.089 179.84C477.84 180.001 477.612 180.199 477.407 180.434L476.89 179.917C477.183 179.594 477.495 179.338 477.825 179.147C478.155 178.949 478.551 178.85 479.013 178.85C479.666 178.85 480.179 179.041 480.553 179.422C480.927 179.796 481.114 180.295 481.114 180.918C481.114 181.248 481.041 181.582 480.894 181.919C480.755 182.249 480.557 182.594 480.3 182.953C480.051 183.305 479.75 183.675 479.398 184.064C479.053 184.445 478.672 184.852 478.254 185.285C478.445 185.27 478.643 185.256 478.848 185.241C479.053 185.226 479.248 185.219 479.431 185.219H481.466V186H476.934ZM484.701 186.132C483.99 186.132 483.436 185.817 483.04 185.186C482.644 184.555 482.446 183.65 482.446 182.469C482.446 181.288 482.644 180.39 483.04 179.774C483.436 179.158 483.99 178.85 484.701 178.85C485.405 178.85 485.955 179.158 486.351 179.774C486.747 180.39 486.945 181.288 486.945 182.469C486.945 183.65 486.747 184.555 486.351 185.186C485.955 185.817 485.405 186.132 484.701 186.132ZM484.701 185.406C484.906 185.406 485.09 185.351 485.251 185.241C485.42 185.124 485.563 184.948 485.68 184.713C485.805 184.471 485.9 184.167 485.966 183.8C486.032 183.426 486.065 182.982 486.065 182.469C486.065 181.956 486.032 181.516 485.966 181.149C485.9 180.782 485.805 180.485 485.68 180.258C485.563 180.023 485.42 179.851 485.251 179.741C485.09 179.631 484.906 179.576 484.701 179.576C484.496 179.576 484.309 179.631 484.14 179.741C483.971 179.851 483.825 180.023 483.7 180.258C483.583 180.485 483.491 180.782 483.425 181.149C483.359 181.516 483.326 181.956 483.326 182.469C483.326 183.496 483.451 184.244 483.7 184.713C483.957 185.175 484.29 185.406 484.701 185.406Z" fill="#A2A3A5"/>
<path d="M546.842 186V178.784H548.646C549.761 178.784 550.608 179.092 551.187 179.708C551.766 180.324 552.056 181.208 552.056 182.359C552.056 182.931 551.983 183.444 551.836 183.899C551.689 184.346 551.473 184.728 551.187 185.043C550.901 185.351 550.549 185.589 550.131 185.758C549.713 185.919 549.233 186 548.69 186H546.842ZM547.755 185.252H548.58C549.423 185.252 550.054 184.999 550.472 184.493C550.897 183.987 551.11 183.276 551.11 182.359C551.11 181.442 550.897 180.742 550.472 180.258C550.054 179.774 549.423 179.532 548.58 179.532H547.755V185.252ZM555.689 186.132C555.329 186.132 554.992 186.07 554.677 185.945C554.369 185.813 554.097 185.63 553.863 185.395C553.635 185.153 553.456 184.86 553.324 184.515C553.192 184.17 553.126 183.778 553.126 183.338C553.126 182.898 553.192 182.506 553.324 182.161C553.463 181.809 553.643 181.512 553.863 181.27C554.09 181.028 554.347 180.845 554.633 180.72C554.919 180.588 555.216 180.522 555.524 180.522C555.861 180.522 556.162 180.581 556.426 180.698C556.697 180.815 556.921 180.984 557.097 181.204C557.28 181.424 557.419 181.688 557.515 181.996C557.61 182.304 557.658 182.649 557.658 183.03C557.658 183.125 557.654 183.221 557.647 183.316C557.647 183.404 557.639 183.481 557.625 183.547H554.017C554.053 184.119 554.229 184.574 554.545 184.911C554.867 185.241 555.285 185.406 555.799 185.406C556.055 185.406 556.29 185.369 556.503 185.296C556.723 185.215 556.932 185.113 557.13 184.988L557.449 185.582C557.214 185.729 556.954 185.857 556.668 185.967C556.382 186.077 556.055 186.132 555.689 186.132ZM554.006 182.898H556.866C556.866 182.355 556.748 181.945 556.514 181.666C556.286 181.38 555.964 181.237 555.546 181.237C555.355 181.237 555.172 181.274 554.996 181.347C554.827 181.42 554.673 181.53 554.534 181.677C554.394 181.816 554.277 181.989 554.182 182.194C554.094 182.399 554.035 182.634 554.006 182.898ZM561.091 186.132C560.739 186.132 560.409 186.07 560.101 185.945C559.793 185.82 559.525 185.641 559.298 185.406C559.078 185.164 558.902 184.871 558.77 184.526C558.645 184.174 558.583 183.778 558.583 183.338C558.583 182.891 558.652 182.495 558.792 182.15C558.931 181.798 559.118 181.501 559.353 181.259C559.587 181.017 559.859 180.834 560.167 180.709C560.482 180.584 560.812 180.522 561.157 180.522C561.509 180.522 561.809 180.584 562.059 180.709C562.308 180.834 562.528 180.98 562.719 181.149L562.257 181.743C562.103 181.604 561.938 181.49 561.762 181.402C561.593 181.314 561.402 181.27 561.19 181.27C560.948 181.27 560.724 181.321 560.519 181.424C560.313 181.519 560.137 181.659 559.991 181.842C559.844 182.025 559.727 182.245 559.639 182.502C559.558 182.751 559.518 183.03 559.518 183.338C559.518 183.646 559.558 183.925 559.639 184.174C559.719 184.423 559.829 184.64 559.969 184.823C560.115 184.999 560.291 185.138 560.497 185.241C560.702 185.336 560.926 185.384 561.168 185.384C561.417 185.384 561.644 185.333 561.85 185.23C562.062 185.12 562.253 184.992 562.422 184.845L562.818 185.45C562.576 185.663 562.308 185.831 562.015 185.956C561.721 186.073 561.413 186.132 561.091 186.132ZM566.241 181.259L565.988 180.841C566.267 180.658 566.472 180.463 566.604 180.258C566.744 180.045 566.813 179.781 566.813 179.466C566.791 179.473 566.762 179.477 566.725 179.477C566.571 179.477 566.436 179.429 566.318 179.334C566.201 179.239 566.142 179.103 566.142 178.927C566.142 178.736 566.197 178.586 566.307 178.476C566.417 178.366 566.557 178.311 566.725 178.311C566.938 178.311 567.107 178.399 567.231 178.575C567.356 178.744 567.418 178.989 567.418 179.312C567.418 179.752 567.316 180.133 567.11 180.456C566.912 180.771 566.623 181.039 566.241 181.259ZM568.475 186V185.461C569.003 184.933 569.472 184.456 569.883 184.031C570.293 183.606 570.638 183.213 570.917 182.854C571.195 182.487 571.408 182.154 571.555 181.853C571.701 181.545 571.775 181.248 571.775 180.962C571.775 180.559 571.665 180.229 571.445 179.972C571.225 179.715 570.891 179.587 570.444 179.587C570.15 179.587 569.879 179.671 569.63 179.84C569.38 180.001 569.153 180.199 568.948 180.434L568.431 179.917C568.724 179.594 569.036 179.338 569.366 179.147C569.696 178.949 570.092 178.85 570.554 178.85C571.206 178.85 571.72 179.041 572.094 179.422C572.468 179.796 572.655 180.295 572.655 180.918C572.655 181.248 572.581 181.582 572.435 181.919C572.295 182.249 572.097 182.594 571.841 182.953C571.591 183.305 571.291 183.675 570.939 184.064C570.594 184.445 570.213 184.852 569.795 185.285C569.985 185.27 570.183 185.256 570.389 185.241C570.594 185.226 570.788 185.219 570.972 185.219H573.007V186H568.475ZM576.241 186.132C575.53 186.132 574.976 185.817 574.58 185.186C574.184 184.555 573.986 183.65 573.986 182.469C573.986 181.288 574.184 180.39 574.58 179.774C574.976 179.158 575.53 178.85 576.241 178.85C576.945 178.85 577.495 179.158 577.891 179.774C578.287 180.39 578.485 181.288 578.485 182.469C578.485 183.65 578.287 184.555 577.891 185.186C577.495 185.817 576.945 186.132 576.241 186.132ZM576.241 185.406C576.447 185.406 576.63 185.351 576.791 185.241C576.96 185.124 577.103 184.948 577.22 184.713C577.345 184.471 577.44 184.167 577.506 183.8C577.572 183.426 577.605 182.982 577.605 182.469C577.605 181.956 577.572 181.516 577.506 181.149C577.44 180.782 577.345 180.485 577.22 180.258C577.103 180.023 576.96 179.851 576.791 179.741C576.63 179.631 576.447 179.576 576.241 179.576C576.036 179.576 575.849 179.631 575.68 179.741C575.512 179.851 575.365 180.023 575.24 180.258C575.123 180.485 575.031 180.782 574.965 181.149C574.899 181.516 574.866 181.956 574.866 182.469C574.866 183.496 574.991 184.244 575.24 184.713C575.497 185.175 575.831 185.406 576.241 185.406Z" fill="#A2A3A5"/>
<line x1="251.43" y1="80.6953" x2="251.43" y2="165" stroke="url(#paint2_linear)" stroke-dasharray="4.4 4.4"/>
<g filter="url(#filter0_dd)">
<path fill-rule="evenodd" clip-rule="evenodd" d="M253.385 69.4805C252.168 70.9814 250.196 70.9814 248.979 69.4805L247.151 67.3349C246.27 66.3011 245.829 65.7842 245.293 65.4129C244.817 65.0838 244.288 64.8397 243.73 64.6913C243.099 64.5239 242.42 64.5239 241.062 64.5239H211.237C206.982 64.5239 205.439 64.1005 203.883 63.3053C202.328 62.5102 201.107 61.3434 200.275 59.8566C199.443 58.3698 199 56.8951 199 52.8282V22.6957C199 18.6288 199.443 17.1541 200.275 15.6673C201.107 14.1805 202.328 13.0137 203.883 12.2186C205.439 11.4234 206.982 11 211.237 11H291.763C296.018 11 297.561 11.4234 299.117 12.2186C300.672 13.0137 301.893 14.1805 302.725 15.6673C303.557 17.1541 304 18.6288 304 22.6957V52.8282C304 56.8951 303.557 58.3698 302.725 59.8566C301.893 61.3434 300.672 62.5102 299.117 63.3053C297.561 64.1005 296.018 64.5239 291.763 64.5239H264.121C262.264 64.5239 261.335 64.5239 260.459 64.6812C258.777 64.9831 257.2 65.7108 255.88 66.7951C255.192 67.36 254.589 68.0668 253.385 69.4805V69.4805Z" fill="white"/>
</g>
<g clip-path="url(#clip0)">
<path d="M223.988 29.3069H221.556L221.108 30.5469H220.34L222.356 25.0029H223.196L225.204 30.5469H224.436L223.988 29.3069ZM223.78 28.7149L222.772 25.8989L221.764 28.7149H223.78ZM229.971 26.1629V30.5469H229.243V29.8989C229.104 30.1229 228.909 30.2989 228.659 30.4269C228.413 30.5495 228.141 30.6109 227.843 30.6109C227.501 30.6109 227.195 30.5415 226.923 30.4029C226.651 30.2589 226.435 30.0455 226.275 29.7629C226.12 29.4802 226.043 29.1362 226.043 28.7309V26.1629H226.763V28.6349C226.763 29.0669 226.872 29.4002 227.091 29.6349C227.309 29.8642 227.608 29.9789 227.987 29.9789C228.376 29.9789 228.683 29.8589 228.907 29.6189C229.131 29.3789 229.243 29.0295 229.243 28.5709V26.1629H229.971ZM233.008 26.0909C233.387 26.0909 233.717 26.1735 234 26.3389C234.288 26.5042 234.501 26.7122 234.64 26.9629V26.1629H235.376V30.6429C235.376 31.0429 235.291 31.3975 235.12 31.7069C234.949 32.0215 234.704 32.2669 234.384 32.4429C234.069 32.6189 233.701 32.7069 233.28 32.7069C232.704 32.7069 232.224 32.5709 231.84 32.2989C231.456 32.0269 231.229 31.6562 231.16 31.1869H231.88C231.96 31.4535 232.125 31.6669 232.376 31.8269C232.627 31.9922 232.928 32.0749 233.28 32.0749C233.68 32.0749 234.005 31.9495 234.256 31.6989C234.512 31.4482 234.64 31.0962 234.64 30.6429V29.7229C234.496 29.9789 234.283 30.1922 234 30.3629C233.717 30.5335 233.387 30.6189 233.008 30.6189C232.619 30.6189 232.264 30.5229 231.944 30.3309C231.629 30.1389 231.381 29.8695 231.2 29.5229C231.019 29.1762 230.928 28.7815 230.928 28.3389C230.928 27.8909 231.019 27.4989 231.2 27.1629C231.381 26.8215 231.629 26.5575 231.944 26.3709C232.264 26.1842 232.619 26.0909 233.008 26.0909ZM234.64 28.3469C234.64 28.0162 234.573 27.7282 234.44 27.4829C234.307 27.2375 234.125 27.0509 233.896 26.9229C233.672 26.7895 233.424 26.7229 233.152 26.7229C232.88 26.7229 232.632 26.7869 232.408 26.9149C232.184 27.0429 232.005 27.2295 231.872 27.4749C231.739 27.7202 231.672 28.0082 231.672 28.3389C231.672 28.6749 231.739 28.9682 231.872 29.2189C232.005 29.4642 232.184 29.6535 232.408 29.7869C232.632 29.9149 232.88 29.9789 233.152 29.9789C233.424 29.9789 233.672 29.9149 233.896 29.7869C234.125 29.6535 234.307 29.4642 234.44 29.2189C234.573 28.9682 234.64 28.6775 234.64 28.3469ZM238.531 29.9629C239.208 29.4189 239.739 28.9735 240.123 28.6269C240.507 28.2749 240.83 27.9095 241.091 27.5309C241.358 27.1469 241.491 26.7709 241.491 26.4029C241.491 26.0562 241.406 25.7842 241.235 25.5869C241.07 25.3842 240.8 25.2829 240.427 25.2829C240.064 25.2829 239.782 25.3975 239.579 25.6269C239.382 25.8509 239.275 26.1522 239.259 26.5309H238.555C238.576 25.9335 238.758 25.4722 239.099 25.1469C239.44 24.8215 239.88 24.6589 240.419 24.6589C240.968 24.6589 241.403 24.8109 241.723 25.1149C242.048 25.4189 242.211 25.8375 242.211 26.3709C242.211 26.8135 242.078 27.2455 241.811 27.6669C241.55 28.0829 241.251 28.4509 240.915 28.7709C240.579 29.0855 240.15 29.4535 239.627 29.8749H242.379V30.4829H238.531V29.9629ZM246.445 26.1389C246.327 25.5469 245.962 25.2509 245.349 25.2509C244.874 25.2509 244.519 25.4349 244.285 25.8029C244.05 26.1655 243.935 26.7655 243.941 27.6029C244.063 27.3255 244.266 27.1095 244.549 26.9549C244.837 26.7949 245.157 26.7149 245.509 26.7149C246.058 26.7149 246.495 26.8855 246.821 27.2269C247.151 27.5682 247.317 28.0402 247.317 28.6429C247.317 29.0055 247.245 29.3309 247.101 29.6189C246.962 29.9069 246.749 30.1362 246.461 30.3069C246.178 30.4775 245.834 30.5629 245.429 30.5629C244.879 30.5629 244.45 30.4402 244.141 30.1949C243.831 29.9495 243.615 29.6109 243.493 29.1789C243.37 28.7469 243.309 28.2135 243.309 27.5789C243.309 25.6215 243.991 24.6429 245.357 24.6429C245.879 24.6429 246.29 24.7842 246.589 25.0669C246.887 25.3495 247.063 25.7069 247.117 26.1389H246.445ZM245.357 27.3309C245.127 27.3309 244.911 27.3789 244.709 27.4749C244.506 27.5655 244.341 27.7069 244.213 27.8989C244.09 28.0855 244.029 28.3149 244.029 28.5869C244.029 28.9922 244.146 29.3229 244.381 29.5789C244.615 29.8295 244.951 29.9549 245.389 29.9549C245.762 29.9549 246.058 29.8402 246.277 29.6109C246.501 29.3762 246.613 29.0615 246.613 28.6669C246.613 28.2509 246.506 27.9255 246.293 27.6909C246.079 27.4509 245.767 27.3309 245.357 27.3309ZM249.171 29.5389L248.275 31.6909H247.787L248.371 29.5389H249.171ZM251.929 29.9629C252.607 29.4189 253.137 28.9735 253.521 28.6269C253.905 28.2749 254.228 27.9095 254.489 27.5309C254.756 27.1469 254.889 26.7709 254.889 26.4029C254.889 26.0562 254.804 25.7842 254.633 25.5869C254.468 25.3842 254.199 25.2829 253.825 25.2829C253.463 25.2829 253.18 25.3975 252.977 25.6269C252.78 25.8509 252.673 26.1522 252.657 26.5309H251.953C251.975 25.9335 252.156 25.4722 252.497 25.1469C252.839 24.8215 253.279 24.6589 253.817 24.6589C254.367 24.6589 254.801 24.8109 255.121 25.1149C255.447 25.4189 255.609 25.8375 255.609 26.3709C255.609 26.8135 255.476 27.2455 255.209 27.6669C254.948 28.0829 254.649 28.4509 254.313 28.7709C253.977 29.0855 253.548 29.4535 253.025 29.8749H255.777V30.4829H251.929V29.9629ZM256.619 27.5949C256.619 26.6775 256.768 25.9629 257.067 25.4509C257.366 24.9335 257.888 24.6749 258.635 24.6749C259.376 24.6749 259.896 24.9335 260.195 25.4509C260.494 25.9629 260.643 26.6775 260.643 27.5949C260.643 28.5282 260.494 29.2535 260.195 29.7709C259.896 30.2882 259.376 30.5469 258.635 30.5469C257.888 30.5469 257.366 30.2882 257.067 29.7709C256.768 29.2535 256.619 28.5282 256.619 27.5949ZM259.923 27.5949C259.923 27.1309 259.891 26.7389 259.827 26.4189C259.768 26.0935 259.643 25.8322 259.451 25.6349C259.264 25.4375 258.992 25.3389 258.635 25.3389C258.272 25.3389 257.995 25.4375 257.803 25.6349C257.616 25.8322 257.491 26.0935 257.427 26.4189C257.368 26.7389 257.339 27.1309 257.339 27.5949C257.339 28.0749 257.368 28.4775 257.427 28.8029C257.491 29.1282 257.616 29.3895 257.803 29.5869C257.995 29.7842 258.272 29.8829 258.635 29.8829C258.992 29.8829 259.264 29.7842 259.451 29.5869C259.643 29.3895 259.768 29.1282 259.827 28.8029C259.891 28.4775 259.923 28.0749 259.923 27.5949ZM261.554 29.9629C262.232 29.4189 262.762 28.9735 263.146 28.6269C263.53 28.2749 263.853 27.9095 264.114 27.5309C264.381 27.1469 264.514 26.7709 264.514 26.4029C264.514 26.0562 264.429 25.7842 264.258 25.5869C264.093 25.3842 263.824 25.2829 263.45 25.2829C263.088 25.2829 262.805 25.3975 262.602 25.6269C262.405 25.8509 262.298 26.1522 262.282 26.5309H261.578C261.6 25.9335 261.781 25.4722 262.122 25.1469C262.464 24.8215 262.904 24.6589 263.442 24.6589C263.992 24.6589 264.426 24.8109 264.746 25.1149C265.072 25.4189 265.234 25.8375 265.234 26.3709C265.234 26.8135 265.101 27.2455 264.834 27.6669C264.573 28.0829 264.274 28.4509 263.938 28.7709C263.602 29.0855 263.173 29.4535 262.65 29.8749H265.402V30.4829H261.554V29.9629ZM266.244 27.5949C266.244 26.6775 266.393 25.9629 266.692 25.4509C266.991 24.9335 267.513 24.6749 268.26 24.6749C269.001 24.6749 269.521 24.9335 269.82 25.4509C270.119 25.9629 270.268 26.6775 270.268 27.5949C270.268 28.5282 270.119 29.2535 269.82 29.7709C269.521 30.2882 269.001 30.5469 268.26 30.5469C267.513 30.5469 266.991 30.2882 266.692 29.7709C266.393 29.2535 266.244 28.5282 266.244 27.5949ZM269.548 27.5949C269.548 27.1309 269.516 26.7389 269.452 26.4189C269.393 26.0935 269.268 25.8322 269.076 25.6349C268.889 25.4375 268.617 25.3389 268.26 25.3389C267.897 25.3389 267.62 25.4375 267.428 25.6349C267.241 25.8322 267.116 26.0935 267.052 26.4189C266.993 26.7389 266.964 27.1309 266.964 27.5949C266.964 28.0749 266.993 28.4775 267.052 28.8029C267.116 29.1282 267.241 29.3895 267.428 29.5869C267.62 29.7842 267.897 29.8829 268.26 29.8829C268.617 29.8829 268.889 29.7842 269.076 29.5869C269.268 29.3895 269.393 29.1282 269.452 28.8029C269.516 28.4775 269.548 28.0749 269.548 27.5949Z" fill="#3C3C43" fill-opacity="0.6"/>
<path d="M223.656 53.3069V51.7229C223.144 51.6695 222.648 51.5309 222.168 51.3069C221.688 51.0722 221.277 50.8002 220.936 50.4909L221.544 49.5789C221.885 49.8775 222.258 50.1335 222.664 50.3469C223.08 50.5495 223.533 50.6509 224.024 50.6509C224.621 50.6509 225.064 50.5015 225.352 50.2029C225.65 49.9042 225.8 49.5042 225.8 49.0029C225.8 48.5762 225.688 48.2242 225.464 47.9469C225.25 47.6589 224.978 47.4135 224.648 47.2109C224.317 46.9975 223.954 46.8002 223.56 46.6189C223.176 46.4375 222.818 46.2295 222.488 45.9949C222.157 45.7602 221.88 45.4775 221.656 45.1469C221.442 44.8055 221.336 44.3735 221.336 43.8509C221.336 43.1362 221.544 42.5442 221.96 42.0749C222.386 41.5949 222.952 41.3015 223.656 41.1949V39.5789H224.616V41.1629C225.128 41.2162 225.56 41.3549 225.912 41.5789C226.274 41.8029 226.6 42.0695 226.888 42.3789L226.184 43.1629C225.885 42.8749 225.592 42.6509 225.304 42.4909C225.026 42.3309 224.669 42.2509 224.232 42.2509C223.741 42.2509 223.352 42.3895 223.064 42.6669C222.776 42.9442 222.632 43.3175 222.632 43.7869C222.632 44.1709 222.738 44.4855 222.952 44.7309C223.176 44.9762 223.453 45.1949 223.784 45.3869C224.114 45.5682 224.472 45.7495 224.856 45.9309C225.25 46.1015 225.613 46.3149 225.944 46.5709C226.274 46.8162 226.546 47.1255 226.76 47.4989C226.984 47.8615 227.096 48.3309 227.096 48.9069C227.096 49.6749 226.872 50.3042 226.424 50.7949C225.986 51.2855 225.384 51.5842 224.616 51.6909V53.3069H223.656ZM229.321 51.5469V50.4589H231.657V42.9389H229.801V42.0909C230.27 42.0055 230.675 41.9042 231.017 41.7869C231.369 41.6589 231.683 41.5095 231.961 41.3389H232.969V50.4589H235.081V51.5469H229.321ZM237.082 54.2669L236.762 53.4989C237.22 53.2962 237.578 53.0242 237.834 52.6829C238.09 52.3522 238.212 51.9735 238.202 51.5469C238.17 51.5575 238.116 51.5629 238.042 51.5629C237.786 51.5629 237.562 51.4882 237.37 51.3389C237.188 51.1789 237.098 50.9495 237.098 50.6509C237.098 50.3629 237.194 50.1389 237.386 49.9789C237.578 49.8082 237.807 49.7229 238.074 49.7229C238.415 49.7229 238.682 49.8615 238.874 50.1389C239.076 50.4162 239.178 50.7949 239.178 51.2749C239.178 51.9682 238.991 52.5709 238.618 53.0829C238.244 53.5949 237.732 53.9895 237.082 54.2669ZM240.634 51.5469V50.7629C241.402 49.9949 242.085 49.3015 242.682 48.6829C243.279 48.0642 243.781 47.4935 244.186 46.9709C244.591 46.4375 244.901 45.9522 245.114 45.5149C245.327 45.0669 245.434 44.6349 245.434 44.2189C245.434 43.6322 245.274 43.1522 244.954 42.7789C244.634 42.4055 244.149 42.2189 243.498 42.2189C243.071 42.2189 242.677 42.3415 242.314 42.5869C241.951 42.8215 241.621 43.1095 241.322 43.4509L240.57 42.6989C240.997 42.2295 241.45 41.8562 241.93 41.5789C242.41 41.2909 242.986 41.1469 243.658 41.1469C244.607 41.1469 245.354 41.4242 245.898 41.9789C246.442 42.5229 246.714 43.2482 246.714 44.1549C246.714 44.6349 246.607 45.1202 246.394 45.6109C246.191 46.0909 245.903 46.5922 245.53 47.1149C245.167 47.6269 244.73 48.1655 244.218 48.7309C243.717 49.2855 243.162 49.8775 242.554 50.5069C242.831 50.4855 243.119 50.4642 243.418 50.4429C243.717 50.4215 243.999 50.4109 244.266 50.4109H247.226V51.5469H240.634ZM251.723 51.7389C251.318 51.7389 250.945 51.6962 250.603 51.6109C250.273 51.5362 249.969 51.4349 249.691 51.3069C249.414 51.1682 249.163 51.0135 248.939 50.8429C248.726 50.6722 248.534 50.4909 248.363 50.2989L249.035 49.4349C249.345 49.7549 249.702 50.0375 250.107 50.2829C250.523 50.5282 251.035 50.6509 251.643 50.6509C252.262 50.6509 252.769 50.4855 253.163 50.1549C253.558 49.8135 253.755 49.3549 253.755 48.7789C253.755 48.4802 253.697 48.2082 253.579 47.9629C253.473 47.7069 253.291 47.4882 253.035 47.3069C252.779 47.1255 252.443 46.9869 252.027 46.8909C251.611 46.7949 251.099 46.7469 250.491 46.7469V45.7389C251.035 45.7389 251.489 45.6909 251.851 45.5949C252.225 45.4989 252.523 45.3655 252.747 45.1949C252.982 45.0242 253.147 44.8215 253.243 44.5869C253.339 44.3522 253.387 44.1015 253.387 43.8349C253.387 43.3335 253.227 42.9389 252.907 42.6509C252.598 42.3629 252.171 42.2189 251.627 42.2189C251.201 42.2189 250.806 42.3149 250.443 42.5069C250.091 42.6989 249.761 42.9495 249.451 43.2589L248.747 42.4269C249.142 42.0535 249.574 41.7495 250.043 41.5149C250.523 41.2695 251.067 41.1469 251.675 41.1469C252.123 41.1469 252.534 41.2055 252.907 41.3229C253.281 41.4402 253.601 41.6109 253.867 41.8349C254.145 42.0482 254.358 42.3149 254.507 42.6349C254.657 42.9549 254.731 43.3229 254.731 43.7389C254.731 44.3575 254.561 44.8642 254.219 45.2589C253.878 45.6535 253.43 45.9575 252.875 46.1709V46.2349C253.185 46.3095 253.473 46.4215 253.739 46.5709C254.006 46.7095 254.241 46.8909 254.443 47.1149C254.646 47.3282 254.801 47.5789 254.907 47.8669C255.025 48.1549 255.083 48.4749 255.083 48.8269C255.083 49.2749 254.993 49.6802 254.811 50.0429C254.641 50.4055 254.401 50.7149 254.091 50.9709C253.793 51.2162 253.441 51.4082 253.035 51.5469C252.63 51.6749 252.193 51.7389 251.723 51.7389ZM260.764 51.5469V48.7309H256.172V47.8669L260.54 41.3389H262.012V47.6749H263.404V48.7309H262.012V51.5469H260.764ZM257.564 47.6749H260.764V44.7149C260.764 44.4375 260.77 44.1122 260.78 43.7389C260.802 43.3549 260.823 43.0242 260.844 42.7469H260.78C260.652 42.9922 260.519 43.2322 260.38 43.4669C260.242 43.7015 260.098 43.9415 259.948 44.1869L257.564 47.6749ZM265.854 51.7389C265.587 51.7389 265.358 51.6482 265.166 51.4669C264.984 51.2749 264.894 51.0349 264.894 50.7469C264.894 50.4375 264.984 50.1922 265.166 50.0109C265.358 49.8189 265.587 49.7229 265.854 49.7229C266.11 49.7229 266.328 49.8189 266.51 50.0109C266.702 50.1922 266.798 50.4375 266.798 50.7469C266.798 51.0349 266.702 51.2749 266.51 51.4669C266.328 51.6482 266.11 51.7389 265.854 51.7389ZM271.822 51.7389C270.787 51.7389 269.982 51.2802 269.406 50.3629C268.83 49.4455 268.542 48.1282 268.542 46.4109C268.542 44.6935 268.83 43.3869 269.406 42.4909C269.982 41.5949 270.787 41.1469 271.822 41.1469C272.846 41.1469 273.646 41.5949 274.222 42.4909C274.798 43.3869 275.086 44.6935 275.086 46.4109C275.086 48.1282 274.798 49.4455 274.222 50.3629C273.646 51.2802 272.846 51.7389 271.822 51.7389ZM271.822 50.6829C272.121 50.6829 272.387 50.6029 272.622 50.4429C272.867 50.2722 273.075 50.0162 273.246 49.6749C273.427 49.3229 273.566 48.8802 273.662 48.3469C273.758 47.8029 273.806 47.1575 273.806 46.4109C273.806 45.6642 273.758 45.0242 273.662 44.4909C273.566 43.9575 273.427 43.5255 273.246 43.1949C273.075 42.8535 272.867 42.6029 272.622 42.4429C272.387 42.2829 272.121 42.2029 271.822 42.2029C271.523 42.2029 271.251 42.2829 271.006 42.4429C270.761 42.6029 270.547 42.8535 270.366 43.1949C270.195 43.5255 270.062 43.9575 269.966 44.4909C269.87 45.0242 269.822 45.6642 269.822 46.4109C269.822 47.9042 270.003 48.9922 270.366 49.6749C270.739 50.3469 271.225 50.6829 271.822 50.6829ZM279.775 51.7389C278.74 51.7389 277.935 51.2802 277.359 50.3629C276.783 49.4455 276.495 48.1282 276.495 46.4109C276.495 44.6935 276.783 43.3869 277.359 42.4909C277.935 41.5949 278.74 41.1469 279.775 41.1469C280.799 41.1469 281.599 41.5949 282.175 42.4909C282.751 43.3869 283.039 44.6935 283.039 46.4109C283.039 48.1282 282.751 49.4455 282.175 50.3629C281.599 51.2802 280.799 51.7389 279.775 51.7389ZM279.775 50.6829C280.074 50.6829 280.34 50.6029 280.575 50.4429C280.82 50.2722 281.028 50.0162 281.199 49.6749C281.38 49.3229 281.519 48.8802 281.615 48.3469C281.711 47.8029 281.759 47.1575 281.759 46.4109C281.759 45.6642 281.711 45.0242 281.615 44.4909C281.519 43.9575 281.38 43.5255 281.199 43.1949C281.028 42.8535 280.82 42.6029 280.575 42.4429C280.34 42.2829 280.074 42.2029 279.775 42.2029C279.476 42.2029 279.204 42.2829 278.959 42.4429C278.714 42.6029 278.5 42.8535 278.319 43.1949C278.148 43.5255 278.015 43.9575 277.919 44.4909C277.823 45.0242 277.775 45.6642 277.775 46.4109C277.775 47.9042 277.956 48.9922 278.319 49.6749C278.692 50.3469 279.178 50.6829 279.775 50.6829Z" fill="#11263C"/>
</g>
<g filter="url(#filter1_dd)">
<rect x="244.566" y="77.6011" width="14" height="14" rx="7" fill="url(#paint3_linear)"/>
<rect x="246.566" y="79.6011" width="10" height="10" rx="5" stroke="white" stroke-width="4"/>
</g>
<defs>
<filter id="filter0_dd" x="183" y="3" width="137" height="91.6062" filterUnits="userSpaceOnUse" color-interpolation-filters="sRGB">
<feFlood flood-opacity="0" result="BackgroundImageFix"/>
<feColorMatrix in="SourceAlpha" type="matrix" values="0 0 0 0 0 0 0 0 0 0 0 0 0 0 0 0 0 0 127 0"/>
<feOffset dy="8"/>
<feGaussianBlur stdDeviation="8"/>
<feColorMatrix type="matrix" values="0 0 0 0 0.196487 0 0 0 0 0.196487 0 0 0 0 0.279476 0 0 0 0.06 0"/>
<feBlend mode="multiply" in2="BackgroundImageFix" result="effect1_dropShadow"/>
<feColorMatrix in="SourceAlpha" type="matrix" values="0 0 0 0 0 0 0 0 0 0 0 0 0 0 0 0 0 0 127 0"/>
<feOffset dy="8"/>
<feGaussianBlur stdDeviation="4"/>
<feColorMatrix type="matrix" values="0 0 0 0 0.196487 0 0 0 0 0.196487 0 0 0 0 0.279476 0 0 0 0.08 0"/>
<feBlend mode="multiply" in2="effect1_dropShadow" result="effect2_dropShadow"/>
<feBlend mode="normal" in="SourceGraphic" in2="effect2_dropShadow" result="shape"/>
</filter>
<filter id="filter1_dd" x="239.233" y="74.9344" width="24.6667" height="24.6667" filterUnits="userSpaceOnUse" color-interpolation-filters="sRGB">
<feFlood flood-opacity="0" result="BackgroundImageFix"/>
<feColorMatrix in="SourceAlpha" type="matrix" values="0 0 0 0 0 0 0 0 0 0 0 0 0 0 0 0 0 0 127 0"/>
<feOffset dy="2.66667"/>
<feGaussianBlur stdDeviation="2.66667"/>
<feColorMatrix type="matrix" values="0 0 0 0 0.196487 0 0 0 0 0.196487 0 0 0 0 0.279476 0 0 0 0.06 0"/>
<feBlend mode="multiply" in2="BackgroundImageFix" result="effect1_dropShadow"/>
<feColorMatrix in="SourceAlpha" type="matrix" values="0 0 0 0 0 0 0 0 0 0 0 0 0 0 0 0 0 0 127 0"/>
<feOffset dy="2.66667"/>
<feGaussianBlur stdDeviation="1.33333"/>
<feColorMatrix type="matrix" values="0 0 0 0 0.196487 0 0 0 0 0.196487 0 0 0 0 0.279476 0 0 0 0.06 0"/>
<feBlend mode="multiply" in2="effect1_dropShadow" result="effect2_dropShadow"/>
<feBlend mode="normal" in="SourceGraphic" in2="effect2_dropShadow" result="shape"/>
</filter>
<linearGradient id="paint0_linear" x1="128.618" y1="-30.5603" x2="91.7923" y2="213.401" gradientUnits="userSpaceOnUse">
<stop stop-color="#16B4EB"/>
<stop offset="1" stop-color="#23E73C"/>
</linearGradient>
<linearGradient id="paint1_linear" x1="291" y1="27" x2="291" y2="229.819" gradientUnits="userSpaceOnUse">
<stop stop-color="#59D9B3" stop-opacity="0.1"/>
<stop offset="0.998978" stop-color="white" stop-opacity="0"/>
</linearGradient>
<linearGradient id="paint2_linear" x1="251.37" y1="99.1633" x2="249.465" y2="99.1483" gradientUnits="userSpaceOnUse">
<stop stop-color="#16B4EB"/>
<stop offset="1" stop-color="#23E73C"/>
</linearGradient>
<linearGradient id="paint3_linear" x1="247.633" y1="71.4496" x2="235.33" y2="89.9218" gradientUnits="userSpaceOnUse">
<stop stop-color="#16B4EB"/>
<stop offset="1" stop-color="#23E73C"/>
</linearGradient>
<clipPath id="clip0">
<rect width="63" height="34.6422" fill="white" transform="translate(219.924 21.5469)"/>
</clipPath>
</defs>
</svg>
